STARTFONT 2.1
COMMENT 
COMMENT Id: cuarabic12.bdf,v 1.6 2002/11/22 22:46:31 mleisher Exp $
COMMENT 
COMMENT Copyright 2002 Computing Research Labs, New Mexico State University
COMMENT 
COMMENT Permission is hereby granted, free of charge, to any person
COMMENT obtaining a copy of this software and associated documentation
COMMENT files (the "Software"), to deal in the Software without
COMMENT restriction, including without limitation the rights to use,
COMMENT copy, modify, merge, publish, distribute, sublicense, and/or
COMMENT sell copies of the Software, and to permit persons to whom the
COMMENT Software is furnished to do so, subject to the following
COMMENT conditions:
COMMENT 
COMMENT The above copyright notice and this permission notice shall be
COMMENT included in all copies or substantial portions of the Software.
COMMENT 
COMMENT THE SOFTWARE IS PROVIDED "AS IS", WITHOUT WARRANTY OF ANY KIND,
COMMENT EXPRESS OR IMPLIED, INCLUDING BUT NOT LIMITED TO THE WARRANTIES
COMMENT OF MERCHANTABILITY, FITNESS FOR A PARTICULAR PURPOSE AND
COMMENT NONINFRINGEMENT.  IN NO EVENT SHALL THE COMPUTING RESEARCH LAB
COMMENT OR NEW MEXICO STATE UNIVERSITY BE LIABLE FOR ANY CLAIM, DAMAGES
COMMENT OR OTHER LIABILITY, WHETHER IN AN ACTION OF CONTRACT, TORT OR
COMMENT OTHERWISE, ARISING FROM, OUT OF OR IN CONNECTION WITH THE
COMMENT SOFTWARE OR THE USE OR OTHER DEALINGS IN THE SOFTWARE.
COMMENT 
COMMENT This font contains glyphs to support text encoded in the Arabic
COMMENT section of Unicode.  It includes a number of alternate digits and
COMMENT glyphs as well.
COMMENT 
FONT -MUTT-ClearlyU Arabic-Medium-R-Normal--17-120-100-100-P-93-ISO10646-1
SIZE 12 100 100
FONTBOUNDINGBOX 21 28 -1 -10
STARTPROPERTIES 20
COPYRIGHT "2001 Computing Research Lab, New Mexico State University."
POINT_SIZE 120
PIXEL_SIZE 17
RESOLUTION_X 100
RESOLUTION_Y 100
FONT_ASCENT 17
FONT_DESCENT 9
AVERAGE_WIDTH 93
SPACING "P"
FOUNDRY "MUTT"
FAMILY_NAME "ClearlyU Arabic Extra"
WEIGHT_NAME "Medium"
SLANT "R"

STARTCHAR 0x060C
ENCODING 1548
SWIDTH 180 0
DWIDTH 3 0
BBX 2 4 1 0
BITMAP
40
80
C0
C0
ENDCHAR
STARTCHAR 0x061B
ENCODING 1563
SWIDTH 240 0
DWIDTH 4 0
BBX 2 7 1 0
BITMAP
40
80
C0
C0
00
C0
C0
ENDCHAR
STARTCHAR 0x061F
ENCODING 1567
SWIDTH 480 0
DWIDTH 8 0
BBX 5 10 1 0
BITMAP
70
88
88
40
20
20
00
00
20
20
ENDCHAR
STARTCHAR uni0621
ENCODING 1569
SWIDTH 300 0
DWIDTH 5 0
BBX 4 6 1 0
BITMAP
70
80
80
70
C0
80
ENDCHAR
STARTCHAR uni0622
ENCODING 1570
SWIDTH 300 0
DWIDTH 5 0
BBX 6 14 0 0
BITMAP
04
78
80
00
20
30
20
20
20
20
20
20
20
20
ENDCHAR
STARTCHAR uni0623
ENCODING 1571
SWIDTH 240 0
DWIDTH 4 0
BBX 3 16 1 0
BITMAP
60
80
60
80
00
00
40
60
40
40
40
40
40
40
40
40
ENDCHAR
STARTCHAR uni0624
ENCODING 1572
SWIDTH 540 0
DWIDTH 9 0
BBX 7 14 0 -3
BITMAP
06
08
06
08
00
00
04
0A
0A
0E
02
02
84
78
ENDCHAR
STARTCHAR uni0625
ENCODING 1573
SWIDTH 300 0
DWIDTH 5 0
BBX 3 16 1 -6
BITMAP
40
60
40
40
40
40
40
40
40
40
00
00
60
80
60
80
ENDCHAR
STARTCHAR uni0626
ENCODING 1574
SWIDTH 660 0
DWIDTH 11 0
BBX 11 13 0 -2
BITMAP
1800
2000
1800
2000
0000
01E0
0200
4200
8180
8040
8040
4180
3E00
ENDCHAR
STARTCHAR uni0627
ENCODING 1575
SWIDTH 300 0
DWIDTH 5 0
BBX 2 10 2 0
BITMAP
80
C0
80
80
80
80
80
80
80
80
ENDCHAR
STARTCHAR uni0628
ENCODING 1576
SWIDTH 780 0
DWIDTH 13 0
BBX 13 9 0 -4
BITMAP
0008
4008
8008
8008
C030
7FC0
0000
0200
0200
ENDCHAR
STARTCHAR uni0629
ENCODING 1577
SWIDTH 420 0
DWIDTH 7 0
BBX 5 10 1 0
BITMAP
50
50
00
00
20
30
50
98
88
78
ENDCHAR
STARTCHAR uni062A
ENCODING 1578
SWIDTH 780 0
DWIDTH 13 0
BBX 13 8 0 -1
BITMAP
0500
0500
0008
4008
8008
8008
C030
7FC0
ENDCHAR
STARTCHAR uni062B
ENCODING 1579
SWIDTH 840 0
DWIDTH 14 0
BBX 13 10 1 -1
BITMAP
0200
0200
0500
0500
0008
4008
8008
8008
C030
7FC0
ENDCHAR
STARTCHAR uni062C
ENCODING 1580
SWIDTH 660 0
DWIDTH 11 0
BBX 10 11 1 -6
BITMAP
7000
8F00
3800
4000
4000
8800
8800
8000
4000
60C0
1F00
ENDCHAR
STARTCHAR uni062D
ENCODING 1581
SWIDTH 660 0
DWIDTH 11 0
BBX 10 11 1 -6
BITMAP
7000
8F00
3800
4000
4000
8000
8000
8000
4000
60C0
1F00
ENDCHAR
STARTCHAR uni062E
ENCODING 1582
SWIDTH 660 0
DWIDTH 11 0
BBX 10 14 1 -6
BITMAP
0800
0800
0000
7000
8F00
3800
4000
4000
8000
8000
8000
4000
60C0
1F00
ENDCHAR
STARTCHAR uni062F
ENCODING 1583
SWIDTH 360 0
DWIDTH 6 0
BBX 5 6 1 0
BITMAP
10
10
08
08
98
60
ENDCHAR
STARTCHAR uni0630
ENCODING 1584
SWIDTH 360 0
DWIDTH 6 0
BBX 5 10 1 0
BITMAP
20
20
00
00
10
10
08
08
98
60
ENDCHAR
STARTCHAR uni0631
ENCODING 1585
SWIDTH 420 0
DWIDTH 7 0
BBX 6 8 1 -4
BITMAP
08
08
04
04
04
0C
18
F0
ENDCHAR
STARTCHAR uni0632
ENCODING 1586
SWIDTH 420 0
DWIDTH 7 0
BBX 6 12 1 -4
BITMAP
08
08
00
00
08
08
04
04
04
0C
18
F0
ENDCHAR
STARTCHAR uni0633
ENCODING 1587
SWIDTH 960 0
DWIDTH 16 0
BBX 15 8 1 -5
BITMAP
0112
0112
40EC
8080
8080
8080
4300
3C00
ENDCHAR
STARTCHAR uni0634
ENCODING 1588
SWIDTH 960 0
DWIDTH 16 0
BBX 15 14 1 -5
BITMAP
0010
0010
0028
0028
0000
0000
0112
0112
40EC
8080
8080
8080
4300
3C00
ENDCHAR
STARTCHAR uni0635
ENCODING 1589
SWIDTH 1080 0
DWIDTH 18 0
BBX 17 9 1 -5
BITMAP
000700
001880
012080
40FF00
80C000
808000
808000
430000
3C0000
ENDCHAR
STARTCHAR uni0636
ENCODING 1590
SWIDTH 1080 0
DWIDTH 18 0
BBX 17 12 1 -5
BITMAP
002000
002000
000000
000700
001880
012080
40FF00
80C000
808000
808000
430000
3C0000
ENDCHAR
STARTCHAR uni0637
ENCODING 1591
SWIDTH 540 0
DWIDTH 9 0
BBX 8 10 1 0
BITMAP
20
30
20
20
20
20
26
39
21
FE
ENDCHAR
STARTCHAR uni0638
ENCODING 1592
SWIDTH 540 0
DWIDTH 9 0
BBX 8 10 1 0
BITMAP
20
30
26
20
20
20
26
39
21
FE
ENDCHAR
STARTCHAR uni0639
ENCODING 1593
SWIDTH 600 0
DWIDTH 10 0
BBX 9 12 1 -7
BITMAP
3800
4000
8000
4C00
3000
4000
4000
8000
8000
8000
4180
3E00
ENDCHAR
STARTCHAR uni063A
ENCODING 1594
SWIDTH 600 0
DWIDTH 10 0
BBX 9 16 1 -7
BITMAP
2000
2000
0000
0000
3800
4000
8000
4C00
3000
4000
4000
8000
8000
8000
4180
3E00
ENDCHAR
STARTCHAR uni0640
ENCODING 1600
SWIDTH 540 0
DWIDTH 9 0
BBX 9 1 0 0
BITMAP
FF80
ENDCHAR
STARTCHAR uni0641
ENCODING 1601
SWIDTH 900 0
DWIDTH 15 0
BBX 14 12 1 0
BITMAP
0010
0010
0000
0000
0018
002C
0024
802C
8014
8004
4038
3FC0
ENDCHAR
STARTCHAR uni0642
ENCODING 1602
SWIDTH 600 0
DWIDTH 10 0
BBX 9 14 1 -3
BITMAP
0500
0500
0000
0000
0300
0580
0480
0480
4380
8080
8080
8100
4200
3C00
ENDCHAR
STARTCHAR uni0075
ENCODING 1603
SWIDTH 660 0
DWIDTH 11 0
BBX 10 10 1 0
BITMAP
0080
00C0
0080
0480
0C80
0480
8C80
8080
C080
7F00
ENDCHAR
STARTCHAR uni0644
ENCODING 1604
SWIDTH 540 0
DWIDTH 9 0
BBX 8 12 1 -2
BITMAP
02
03
02
02
02
02
02
42
82
82
84
78
ENDCHAR
STARTCHAR uni0645
ENCODING 1605
SWIDTH 420 0
DWIDTH 7 0
BBX 6 13 1 -9
BITMAP
40
B0
08
7C
80
80
80
80
80
80
80
80
80
ENDCHAR
STARTCHAR uni0646
ENCODING 1606
SWIDTH 600 0
DWIDTH 10 0
BBX 8 10 1 -2
BITMAP
10
10
00
02
02
41
81
81
82
7C
ENDCHAR
STARTCHAR uni0647
ENCODING 1607
SWIDTH 420 0
DWIDTH 7 0
BBX 5 6 1 0
BITMAP
20
30
50
88
88
70
ENDCHAR
STARTCHAR uni0648
ENCODING 1608
SWIDTH 540 0
DWIDTH 9 0
BBX 7 8 0 -3
BITMAP
04
0A
0A
0E
02
02
84
78
ENDCHAR
STARTCHAR uni0649
ENCODING 1609
SWIDTH 660 0
DWIDTH 11 0
BBX 11 8 0 -2
BITMAP
01E0
0200
4200
8180
8040
8040
4180
3E00
ENDCHAR
STARTCHAR uni064A
ENCODING 1610
SWIDTH 720 0
DWIDTH 12 0
BBX 11 11 1 -5
BITMAP
01E0
0200
4200
8180
8040
8040
4180
3E00
0000
2800
2800
ENDCHAR
STARTCHAR uni064B
ENCODING 1611
SWIDTH 0 0
DWIDTH 0 0
BBX 4 4 1 10
BITMAP
30
C0
30
C0
ENDCHAR
STARTCHAR uni064C
ENCODING 1612
SWIDTH 360 0
DWIDTH 6 0
BBX 5 4 1 11
BITMAP
18
58
D0
60
ENDCHAR
STARTCHAR uni064D
ENCODING 1613
SWIDTH 0 0
DWIDTH 0 0
BBX 4 4 1 -6
BITMAP
30
C0
30
C0
ENDCHAR
STARTCHAR uni064E
ENCODING 1614
SWIDTH 360 0
DWIDTH 6 0
BBX 4 3 1 10
BITMAP
10
60
80
ENDCHAR
STARTCHAR uni064F
ENCODING 1615
SWIDTH 300 0
DWIDTH 5 0
BBX 4 5 1 11
BITMAP
20
50
20
50
80
ENDCHAR
STARTCHAR uni0650
ENCODING 1616
SWIDTH 0 0
DWIDTH 0 0
BBX 4 3 1 -4
BITMAP
10
60
80
ENDCHAR
STARTCHAR uni0651
ENCODING 1617
SWIDTH 0 0
DWIDTH 0 0
BBX 5 3 1 12
BITMAP
08
A8
D0
ENDCHAR
STARTCHAR uni0652
ENCODING 1618
SWIDTH 240 0
DWIDTH 4 0
BBX 3 4 1 11
BITMAP
40
A0
A0
C0
ENDCHAR
STARTCHAR uni0653
ENCODING 1619
SWIDTH 0 0
DWIDTH 0 0
BBX 6 3 1 11
BITMAP
04
78
80
ENDCHAR
STARTCHAR uni0654
ENCODING 1620
SWIDTH 0 0
DWIDTH 0 0
BBX 3 4 1 11
BITMAP
60
80
60
80
ENDCHAR
STARTCHAR uni0655
ENCODING 1621
SWIDTH 0 0
DWIDTH 0 0
BBX 3 4 1 -4
BITMAP
60
80
60
80
ENDCHAR
STARTCHAR uni0660
ENCODING 1632
SWIDTH 300 0
DWIDTH 5 0
BBX 3 3 1 3
BITMAP
40
E0
40
ENDCHAR
STARTCHAR uni0661
ENCODING 1633
SWIDTH 300 0
DWIDTH 5 0
BBX 3 10 1 0
BITMAP
C0
C0
C0
E0
60
60
20
20
20
20
ENDCHAR
STARTCHAR uni0662
ENCODING 1634
SWIDTH 480 0
DWIDTH 8 0
BBX 6 10 1 0
BITMAP
C4
FC
F8
60
60
60
20
20
20
20
ENDCHAR
STARTCHAR uni0663
ENCODING 1635
SWIDTH 480 0
DWIDTH 8 0
BBX 6 10 1 0
BITMAP
94
FC
E8
60
60
60
20
20
20
20
ENDCHAR
STARTCHAR uni0664
ENCODING 1636
SWIDTH 420 0
DWIDTH 7 0
BBX 5 11 1 -1
BITMAP
20
60
C0
80
F0
60
C0
80
80
F8
70
ENDCHAR
STARTCHAR uni0665
ENCODING 1637
SWIDTH 420 0
DWIDTH 7 0
BBX 5 8 2 1
BITMAP
30
70
58
88
88
D8
F0
60
ENDCHAR
STARTCHAR uni0666
ENCODING 1638
SWIDTH 480 0
DWIDTH 8 0
BBX 6 9 1 0
BITMAP
88
F8
78
08
08
0C
0C
04
04
ENDCHAR
STARTCHAR uni0667
ENCODING 1639
SWIDTH 480 0
DWIDTH 8 0
BBX 6 10 1 0
BITMAP
84
84
CC
C8
68
68
38
30
10
10
ENDCHAR
STARTCHAR uni0668
ENCODING 1640
SWIDTH 480 0
DWIDTH 8 0
BBX 6 10 1 0
BITMAP
20
20
30
70
58
58
4C
CC
84
84
ENDCHAR
STARTCHAR uni0669
ENCODING 1641
SWIDTH 420 0
DWIDTH 7 0
BBX 5 10 1 0
BITMAP
60
B0
90
F0
50
10
18
18
08
08
ENDCHAR
STARTCHAR uni066A
ENCODING 1642
SWIDTH 600 0
DWIDTH 10 0
BBX 7 10 1 0
BITMAP
04
C4
08
08
10
10
20
26
40
40
ENDCHAR
STARTCHAR uni066B
ENCODING 1643
SWIDTH 180 0
DWIDTH 3 0
BBX 4 5 -1 -3
BITMAP
10
10
10
20
C0
ENDCHAR
STARTCHAR uni066C
ENCODING 1644
SWIDTH 300 0
DWIDTH 5 0
BBX 2 5 1 0
BITMAP
C0
C0
40
40
80
ENDCHAR
STARTCHAR uni066D
ENCODING 1645
SWIDTH 540 0
DWIDTH 9 0
BBX 7 6 1 5
BITMAP
10
10
FE
38
28
44
ENDCHAR
STARTCHAR uni067A
ENCODING 1646
SWIDTH 780 0
DWIDTH 13 0
BBX 13 6 0 -1
BITMAP
0008
4008
8008
8008
C030
7FC0
ENDCHAR
STARTCHAR uni0642
ENCODING 1647
SWIDTH 600 0
DWIDTH 10 0
BBX 9 10 1 -3
BITMAP
0300
0580
0480
0480
4380
8080
8080
8100
4200
3C00
ENDCHAR
STARTCHAR uni0670
ENCODING 1648
SWIDTH 0 0
DWIDTH 0 0
BBX 1 4 1 10
BITMAP
80
80
80
80
ENDCHAR
STARTCHAR uni0671
ENCODING 1649
SWIDTH 300 0
DWIDTH 5 0
BBX 5 15 0 0
BITMAP
10
28
78
80
00
20
30
20
20
20
20
20
20
20
20
ENDCHAR
STARTCHAR uni0672
ENCODING 1650
SWIDTH 300 0
DWIDTH 5 0
BBX 5 15 -1 0
BITMAP
18
20
18
E0
00
10
18
10
10
10
10
10
10
10
10
ENDCHAR
STARTCHAR uni0673
ENCODING 1651
SWIDTH 300 0
DWIDTH 5 0
BBX 5 15 -1 -5
BITMAP
10
18
10
10
10
10
10
10
10
10
00
18
20
18
E0
ENDCHAR
STARTCHAR uni0674
ENCODING 1652
SWIDTH 300 0
DWIDTH 5 0
BBX 3 4 1 12
BITMAP
60
80
60
80
ENDCHAR
STARTCHAR uni0675
ENCODING 1653
SWIDTH 360 0
DWIDTH 6 0
BBX 6 13 2 0
BITMAP
0C
10
0C
90
C0
80
80
80
80
80
80
80
80
ENDCHAR
STARTCHAR uni0676
ENCODING 1654
SWIDTH 540 0
DWIDTH 9 0
BBX 9 14 0 -3
BITMAP
0180
0200
0180
0200
0000
0000
0400
0A00
0A00
0E00
0200
0200
8400
7800
ENDCHAR
STARTCHAR uni0677
ENCODING 1655
SWIDTH 540 0
DWIDTH 9 0
BBX 9 14 0 -3
BITMAP
1180
2A00
1180
2A00
4000
0000
0400
0A00
0A00
0E00
0200
0200
8400
7800
ENDCHAR
STARTCHAR uni0678
ENCODING 1656
SWIDTH 840 0
DWIDTH 14 0
BBX 13 14 1 -2
BITMAP
0018
0020
0018
0020
0000
0000
01E0
0200
4200
8180
8040
8040
4180
3E00
ENDCHAR
STARTCHAR uni0679
ENCODING 1657
SWIDTH 840 0
DWIDTH 14 0
BBX 13 9 1 -1
BITMAP
0400
0400
0700
0708
4008
8008
8008
C030
7FC0
ENDCHAR
STARTCHAR uni067A
ENCODING 1658
SWIDTH 780 0
DWIDTH 13 0
BBX 13 11 0 -1
BITMAP
0200
0200
0000
0200
0200
0008
4008
8008
8008
C030
7FC0
ENDCHAR
STARTCHAR uni067B
ENCODING 1659
SWIDTH 840 0
DWIDTH 14 0
BBX 13 12 1 -7
BITMAP
0008
4008
8008
8008
C030
7FC0
0000
0200
0200
0000
0200
0200
ENDCHAR
STARTCHAR uni067C
ENCODING 1660
SWIDTH 780 0
DWIDTH 13 0
BBX 13 11 0 -4
BITMAP
0500
0500
0008
4008
8008
8008
C030
7FC0
0600
0900
0600
ENDCHAR
STARTCHAR uni067D
ENCODING 1661
SWIDTH 840 0
DWIDTH 14 0
BBX 13 10 1 -1
BITMAP
0500
0500
0200
0200
0008
4008
8008
8008
C030
7FC0
ENDCHAR
STARTCHAR uni067E
ENCODING 1662
SWIDTH 840 0
DWIDTH 14 0
BBX 13 11 1 -6
BITMAP
0008
4008
8008
8008
C030
7FC0
0000
0A00
0A00
0400
0400
ENDCHAR
STARTCHAR uni067F
ENCODING 1663
SWIDTH 840 0
DWIDTH 14 0
BBX 13 11 1 -1
BITMAP
0500
0500
0000
0500
0500
0008
4008
8008
8008
C030
7FC0
ENDCHAR
STARTCHAR uni0680
ENCODING 1664
SWIDTH 840 0
DWIDTH 14 0
BBX 13 12 1 -7
BITMAP
0008
4008
8008
8008
C030
7FC0
0000
0500
0500
0000
0500
0500
ENDCHAR
STARTCHAR uni0681
ENCODING 1665
SWIDTH 660 0
DWIDTH 11 0
BBX 10 17 1 -6
BITMAP
0C00
1000
0C00
1000
0000
0000
7000
8F00
3800
4000
4000
8000
8000
8000
4000
60C0
1F00
ENDCHAR
STARTCHAR uni0682
ENCODING 1666
SWIDTH 660 0
DWIDTH 11 0
BBX 10 18 1 -6
BITMAP
0800
0800
0000
0800
0800
0000
0000
7000
8F00
3800
4000
4000
8000
8000
8000
4000
60C0
1F00
ENDCHAR
STARTCHAR uni0683
ENCODING 1667
SWIDTH 660 0
DWIDTH 11 0
BBX 10 11 1 -6
BITMAP
7000
8F00
3800
4000
4000
8A00
8A00
8000
4000
60C0
1F00
ENDCHAR
STARTCHAR uni0684
ENCODING 1668
SWIDTH 660 0
DWIDTH 11 0
BBX 10 11 1 -6
BITMAP
7000
8F00
3800
4000
4800
8800
8000
8800
4800
60C0
1F00
ENDCHAR
STARTCHAR uni0685
ENCODING 1669
SWIDTH 660 0
DWIDTH 11 0
BBX 10 17 1 -6
BITMAP
0800
0800
1400
1400
0000
0000
7000
8F00
3800
4000
4000
8000
8000
8000
4000
60C0
1F00
ENDCHAR
STARTCHAR uni0686
ENCODING 1670
SWIDTH 660 0
DWIDTH 11 0
BBX 10 11 1 -6
BITMAP
7000
8F00
3800
4000
4000
9400
9400
8800
4800
60C0
1F00
ENDCHAR
STARTCHAR uni0687
ENCODING 1671
SWIDTH 660 0
DWIDTH 11 0
BBX 10 11 1 -6
BITMAP
7000
8F00
3800
4000
4A00
8A00
8000
8A00
4A00
60C0
1F00
ENDCHAR
STARTCHAR uni0688
ENCODING 1672
SWIDTH 360 0
DWIDTH 6 0
BBX 5 12 1 0
BITMAP
80
80
E0
E0
00
00
10
10
08
08
98
60
ENDCHAR
STARTCHAR uni0689
ENCODING 1673
SWIDTH 360 0
DWIDTH 6 0
BBX 5 9 1 -3
BITMAP
10
10
08
08
98
60
20
50
20
ENDCHAR
STARTCHAR uni068A
ENCODING 1674
SWIDTH 360 0
DWIDTH 6 0
BBX 5 10 1 -4
BITMAP
10
10
08
08
98
60
00
00
20
20
ENDCHAR
STARTCHAR uni068B
ENCODING 1675
SWIDTH 360 0
DWIDTH 6 0
BBX 5 16 1 -4
BITMAP
40
40
70
70
00
00
10
10
08
08
98
60
00
00
20
20
ENDCHAR
STARTCHAR uni068C
ENCODING 1676
SWIDTH 360 0
DWIDTH 6 0
BBX 5 10 1 0
BITMAP
50
50
00
00
10
10
08
08
98
60
ENDCHAR
STARTCHAR uni068D
ENCODING 1677
SWIDTH 360 0
DWIDTH 6 0
BBX 5 9 1 -3
BITMAP
10
10
08
08
98
60
00
50
50
ENDCHAR
STARTCHAR uni068E
ENCODING 1678
SWIDTH 360 0
DWIDTH 6 0
BBX 5 12 1 0
BITMAP
20
20
50
50
00
00
10
10
08
08
98
60
ENDCHAR
STARTCHAR uni068F
ENCODING 1679
SWIDTH 360 0
DWIDTH 6 0
BBX 5 12 1 0
BITMAP
50
50
20
20
00
00
10
10
08
08
98
60
ENDCHAR
STARTCHAR uni0690
ENCODING 1680
SWIDTH 360 0
DWIDTH 6 0
BBX 5 13 1 0
BITMAP
50
50
00
50
50
00
00
10
10
08
08
98
60
ENDCHAR
STARTCHAR uni0691
ENCODING 1681
SWIDTH 420 0
DWIDTH 7 0
BBX 6 14 1 -4
BITMAP
20
20
38
38
00
00
08
08
04
04
04
0C
18
F0
ENDCHAR
STARTCHAR uni0692
ENCODING 1682
SWIDTH 480 0
DWIDTH 8 0
BBX 7 13 1 -4
BITMAP
22
14
08
00
00
08
08
04
04
04
0C
18
F0
ENDCHAR
STARTCHAR uni0693
ENCODING 1683
SWIDTH 420 0
DWIDTH 7 0
BBX 6 9 1 -5
BITMAP
08
08
04
04
04
0C
18
F4
0C
ENDCHAR
STARTCHAR uni0694
ENCODING 1684
SWIDTH 420 0
DWIDTH 7 0
BBX 6 10 1 -6
BITMAP
08
08
04
04
04
0C
18
F0
04
04
ENDCHAR
STARTCHAR uni0695
ENCODING 1685
SWIDTH 420 0
DWIDTH 7 0
BBX 6 12 1 -8
BITMAP
08
08
04
04
04
0C
18
F0
00
44
28
10
ENDCHAR
STARTCHAR uni0696
ENCODING 1686
SWIDTH 420 0
DWIDTH 7 0
BBX 6 10 1 -6
BITMAP
08
08
04
44
44
0C
18
F0
04
04
ENDCHAR
STARTCHAR uni0697
ENCODING 1687
SWIDTH 420 0
DWIDTH 7 0
BBX 6 12 1 -4
BITMAP
14
14
00
00
08
08
04
04
04
0C
18
F0
ENDCHAR
STARTCHAR uni0698
ENCODING 1688
SWIDTH 420 0
DWIDTH 7 0
BBX 6 14 1 -4
BITMAP
08
08
14
14
00
00
08
08
04
04
04
0C
18
F0
ENDCHAR
STARTCHAR uni0699
ENCODING 1689
SWIDTH 420 0
DWIDTH 7 0
BBX 6 15 1 -4
BITMAP
14
14
00
14
14
00
00
08
08
04
04
04
0C
18
F0
ENDCHAR
STARTCHAR uni069A
ENCODING 1690
SWIDTH 960 0
DWIDTH 16 0
BBX 15 12 1 -5
BITMAP
0010
0010
0000
0000
0112
0112
40EC
8080
8080
8088
4308
3C00
ENDCHAR
STARTCHAR uni069B
ENCODING 1691
SWIDTH 960 0
DWIDTH 16 0
BBX 15 9 1 -6
BITMAP
0112
0112
40EC
8080
8080
8094
4314
3C08
0008
ENDCHAR
STARTCHAR uni069C
ENCODING 1692
SWIDTH 960 0
DWIDTH 16 0
BBX 15 15 1 -6
BITMAP
0010
0010
0028
0028
0000
0000
0112
0112
40EC
8080
8080
8094
4314
3C08
0008
ENDCHAR
STARTCHAR uni069D
ENCODING 1693
SWIDTH 1080 0
DWIDTH 18 0
BBX 17 9 1 -5
BITMAP
000700
001880
012080
40FF00
80C000
808000
808A00
430A00
3C0000
ENDCHAR
STARTCHAR uni069E
ENCODING 1694
SWIDTH 1080 0
DWIDTH 18 0
BBX 17 15 1 -5
BITMAP
001000
001000
002800
002800
000000
000000
000700
001880
012080
40FF00
80C000
808000
808000
430000
3C0000
ENDCHAR
STARTCHAR uni069F
ENCODING 1695
SWIDTH 540 0
DWIDTH 9 0
BBX 8 10 1 0
BITMAP
22
32
25
25
20
20
26
39
21
FE
ENDCHAR
STARTCHAR uni06A0
ENCODING 1696
SWIDTH 600 0
DWIDTH 10 0
BBX 9 18 1 -7
BITMAP
1000
1000
2800
2800
0000
0000
3800
4000
8000
4C00
3000
4000
4000
8000
8000
8000
4180
3E00
ENDCHAR
STARTCHAR uni06A1
ENCODING 1697
SWIDTH 900 0
DWIDTH 15 0
BBX 14 8 1 0
BITMAP
0018
002C
0024
802C
8014
8004
4038
3FC0
ENDCHAR
STARTCHAR uni06A2
ENCODING 1698
SWIDTH 900 0
DWIDTH 15 0
BBX 14 12 1 -4
BITMAP
0018
002C
0024
802C
8014
8004
4038
3FC0
0000
0000
0100
0100
ENDCHAR
STARTCHAR uni06A3
ENCODING 1699
SWIDTH 900 0
DWIDTH 15 0
BBX 14 16 1 -4
BITMAP
0010
0010
0000
0000
0018
002C
0024
802C
8014
8004
4038
3FC0
0000
0000
0100
0100
ENDCHAR
STARTCHAR uni06A4
ENCODING 1700
SWIDTH 900 0
DWIDTH 15 0
BBX 14 14 1 0
BITMAP
0010
0010
0028
0028
0000
0000
0018
002C
0024
802C
8014
8004
4038
3FC0
ENDCHAR
STARTCHAR uni06A5
ENCODING 1701
SWIDTH 900 0
DWIDTH 15 0
BBX 14 13 1 -5
BITMAP
0018
002C
0024
802C
8014
8004
4038
3FC0
0000
0028
0028
0010
0010
ENDCHAR
STARTCHAR uni06A6
ENCODING 1702
SWIDTH 900 0
DWIDTH 15 0
BBX 14 15 1 0
BITMAP
0028
0028
0000
0028
0028
0000
0000
0018
002C
0024
802C
8014
8004
4038
3FC0
ENDCHAR
STARTCHAR uni06A7
ENCODING 1703
SWIDTH 600 0
DWIDTH 10 0
BBX 9 14 1 -3
BITMAP
0200
0200
0000
0000
0300
0580
0480
0480
4380
8080
8080
8100
4200
3C00
ENDCHAR
STARTCHAR uni06A8
ENCODING 1704
SWIDTH 600 0
DWIDTH 10 0
BBX 9 16 1 -3
BITMAP
0200
0200
0500
0500
0000
0000
0300
0580
0480
0480
4380
8080
8080
8100
4200
3C00
ENDCHAR
STARTCHAR uni06A9
ENCODING 1705
SWIDTH 780 0
DWIDTH 13 0
BBX 12 14 1 -1
BITMAP
0010
0060
0180
0210
0060
0180
0200
0200
0100
40C0
8020
8010
8060
7F80
ENDCHAR
STARTCHAR uni06AA
ENCODING 1706
SWIDTH 960 0
DWIDTH 16 0
BBX 14 9 1 0
BITMAP
0180
0600
1800
2000
2000
1FF8
0004
8004
7FF8
ENDCHAR
STARTCHAR uni06AB
ENCODING 1707
SWIDTH 780 0
DWIDTH 13 0
BBX 12 11 1 -1
BITMAP
0010
0060
01D0
0250
0220
0100
40C0
8020
8010
8060
7F80
ENDCHAR
STARTCHAR uni0075
ENCODING 1708
SWIDTH 660 0
DWIDTH 11 0
BBX 10 13 1 0
BITMAP
0400
0400
0000
0080
00C0
0080
0480
0C80
0480
8C80
8080
C080
7F00
ENDCHAR
STARTCHAR uni0075
ENCODING 1709
SWIDTH 660 0
DWIDTH 11 0
BBX 10 15 1 0
BITMAP
0400
0400
0A00
0A00
0000
0080
00C0
0080
0480
0C80
0480
8C80
8080
C080
7F00
ENDCHAR
STARTCHAR uni0075
ENCODING 1710
SWIDTH 660 0
DWIDTH 11 0
BBX 10 16 1 -6
BITMAP
0080
00C0
0080
0480
0C80
0480
8C80
8080
C080
7F00
0000
0000
0A00
0A00
0400
0400
ENDCHAR
STARTCHAR uni06AF
ENCODING 1711
SWIDTH 780 0
DWIDTH 13 0
BBX 12 15 1 -1
BITMAP
0010
0060
0180
0210
0060
0180
0200
0200
0100
00C0
4020
8010
8010
8060
7F80
ENDCHAR
STARTCHAR uni06B0
ENCODING 1712
SWIDTH 780 0
DWIDTH 13 0
BBX 12 14 1 -1
BITMAP
0010
0060
0180
0210
0060
01D0
0250
0220
0100
40C0
8020
8010
8060
7F80
ENDCHAR
STARTCHAR uni06B1
ENCODING 1713
SWIDTH 780 0
DWIDTH 13 0
BBX 12 16 1 -1
BITMAP
0040
0140
0110
0060
0180
0210
0060
0180
0200
0200
0100
40C0
8020
8010
8060
7F80
ENDCHAR
STARTCHAR uni06B2
ENCODING 1714
SWIDTH 780 0
DWIDTH 13 0
BBX 12 18 1 -5
BITMAP
0010
0060
0180
0210
0060
0180
0200
0200
0100
40C0
8020
8010
8060
7F80
0000
0000
0A00
0A00
ENDCHAR
STARTCHAR uni06B3
ENCODING 1715
SWIDTH 780 0
DWIDTH 13 0
BBX 12 20 1 -7
BITMAP
0010
0060
0180
0210
0060
0180
0200
0200
0100
40C0
8020
8010
8060
7F80
0000
0400
0400
0000
0400
0400
ENDCHAR
STARTCHAR uni06B4
ENCODING 1716
SWIDTH 780 0
DWIDTH 13 0
BBX 12 18 1 -1
BITMAP
0100
0100
0040
0140
0110
0060
0180
0210
0060
0180
0200
0200
0100
40C0
8020
8010
8060
7F80
ENDCHAR
STARTCHAR uni06B5
ENCODING 1717
SWIDTH 600 0
DWIDTH 10 0
BBX 9 17 1 -2
BITMAP
0880
0500
0200
0000
0000
0200
0300
0200
0200
0200
0200
0200
4200
8200
8200
8400
7800
ENDCHAR
STARTCHAR uni06B6
ENCODING 1718
SWIDTH 540 0
DWIDTH 9 0
BBX 8 16 1 -2
BITMAP
02
02
00
00
02
03
02
02
02
02
02
42
82
82
84
78
ENDCHAR
STARTCHAR uni06B7
ENCODING 1719
SWIDTH 540 0
DWIDTH 9 0
BBX 8 18 1 -2
BITMAP
02
02
05
05
00
00
02
03
02
02
02
02
02
42
82
82
84
78
ENDCHAR
STARTCHAR uni06BA
ENCODING 1722
SWIDTH 600 0
DWIDTH 10 0
BBX 8 7 1 -2
BITMAP
02
02
41
81
81
82
7C
ENDCHAR
STARTCHAR uni06BB
ENCODING 1723
SWIDTH 600 0
DWIDTH 10 0
BBX 8 13 1 -2
BITMAP
20
20
38
38
00
00
02
02
41
81
81
82
7C
ENDCHAR
STARTCHAR uni06BC
ENCODING 1724
SWIDTH 600 0
DWIDTH 10 0
BBX 9 11 1 -3
BITMAP
1000
1000
0000
0200
0200
4100
8100
8100
8300
7E80
0380
ENDCHAR
STARTCHAR uni06BD
ENCODING 1725
SWIDTH 600 0
DWIDTH 10 0
BBX 8 12 1 -2
BITMAP
08
08
14
14
00
02
02
41
81
81
82
7C
ENDCHAR
STARTCHAR uni06BE
ENCODING 1726
SWIDTH 600 0
DWIDTH 10 0
BBX 8 6 1 -1
BITMAP
38
4E
49
59
26
C0
ENDCHAR
STARTCHAR uni06C0
ENCODING 1728
SWIDTH 480 0
DWIDTH 8 0
BBX 5 11 1 0
BITMAP
30
40
30
40
00
20
30
50
98
88
78
ENDCHAR
STARTCHAR uni06C1
ENCODING 1729
SWIDTH 540 0
DWIDTH 9 0
BBX 6 4 1 0
BITMAP
30
78
8C
04
ENDCHAR
STARTCHAR uni06C2
ENCODING 1730
SWIDTH 540 0
DWIDTH 9 0
BBX 6 10 1 0
BITMAP
18
20
18
20
00
00
30
78
8C
04
ENDCHAR
STARTCHAR uni06C3
ENCODING 1731
SWIDTH 540 0
DWIDTH 9 0
BBX 6 8 1 0
BITMAP
28
28
00
00
30
78
8C
04
ENDCHAR
STARTCHAR uni06C4
ENCODING 1732
SWIDTH 540 0
DWIDTH 9 0
BBX 7 8 0 -3
BITMAP
04
0A
0A
0E
12
2A
94
78
ENDCHAR
STARTCHAR uni06C5
ENCODING 1733
SWIDTH 540 0
DWIDTH 9 0
BBX 7 8 0 -3
BITMAP
04
0A
0A
0E
02
3E
84
78
ENDCHAR
STARTCHAR uni06C6
ENCODING 1734
SWIDTH 480 0
DWIDTH 8 0
BBX 8 13 0 -3
BITMAP
11
0A
04
00
00
04
0A
0A
0E
02
02
84
78
ENDCHAR
STARTCHAR uni06C7
ENCODING 1735
SWIDTH 540 0
DWIDTH 9 0
BBX 7 14 0 -3
BITMAP
04
0A
04
0A
10
00
04
0A
0A
0E
02
02
84
78
ENDCHAR
STARTCHAR uni06C8
ENCODING 1736
SWIDTH 540 0
DWIDTH 9 0
BBX 7 14 0 -3
BITMAP
04
04
04
04
00
00
04
0A
0A
0E
02
02
84
78
ENDCHAR
STARTCHAR uni06C9
ENCODING 1737
SWIDTH 480 0
DWIDTH 8 0
BBX 8 13 0 -3
BITMAP
04
0A
11
00
00
04
0A
0A
0E
02
02
84
78
ENDCHAR
STARTCHAR uni06CA
ENCODING 1738
SWIDTH 540 0
DWIDTH 9 0
BBX 7 12 0 -3
BITMAP
0A
0A
00
00
04
0A
0A
0E
02
02
84
78
ENDCHAR
STARTCHAR uni06CB
ENCODING 1739
SWIDTH 540 0
DWIDTH 9 0
BBX 7 14 0 -3
BITMAP
04
04
0A
0A
00
00
04
0A
0A
0E
02
02
84
78
ENDCHAR
STARTCHAR uni06CC
ENCODING 1740
SWIDTH 720 0
DWIDTH 12 0
BBX 11 8 1 -2
BITMAP
01E0
0200
4200
8180
8040
8040
4180
3E00
ENDCHAR
STARTCHAR uni06CD
ENCODING 1741
SWIDTH 780 0
DWIDTH 13 0
BBX 13 8 0 -2
BITMAP
0078
0080
1080
2060
6010
A010
1060
0F80
ENDCHAR
STARTCHAR uni06CE
ENCODING 1742
SWIDTH 660 0
DWIDTH 11 0
BBX 11 11 0 -2
BITMAP
4400
2800
1000
01E0
0200
4200
8180
8040
8040
4180
3E00
ENDCHAR
STARTCHAR uni06D0
ENCODING 1744
SWIDTH 720 0
DWIDTH 12 0
BBX 11 14 1 -8
BITMAP
01E0
0200
4200
8180
8040
8040
4180
3E00
0000
0800
0800
0000
0800
0800
ENDCHAR
STARTCHAR uni06D1
ENCODING 1745
SWIDTH 720 0
DWIDTH 12 0
BBX 11 13 1 -7
BITMAP
01E0
0200
4200
8180
8040
8040
4180
3E00
0000
2800
2800
1000
1000
ENDCHAR
STARTCHAR uni06D2
ENCODING 1746
SWIDTH 900 0
DWIDTH 15 0
BBX 13 8 1 -4
BITMAP
0200
0500
0500
1800
6000
8000
8000
7FF8
ENDCHAR
STARTCHAR uni06D3
ENCODING 1747
SWIDTH 900 0
DWIDTH 15 0
BBX 13 11 1 -4
BITMAP
3000
4000
3000
4200
0500
0500
1800
6000
8000
8000
7FF8
ENDCHAR
STARTCHAR uni06D4
ENCODING 1748
SWIDTH 480 0
DWIDTH 8 0
BBX 5 1 1 3
BITMAP
F8
ENDCHAR
STARTCHAR uni06D5
ENCODING 1749
SWIDTH 300 0
DWIDTH 5 0
BBX 4 6 1 0
BITMAP
20
30
50
90
90
60
ENDCHAR
STARTCHAR char1750
ENCODING 1750
SWIDTH 0 0
DWIDTH 0 0
BBX 10 7 1 10
BITMAP
2000
2000
2180
2A40
5780
8000
7E00
ENDCHAR
STARTCHAR char1750
ENCODING 1751
SWIDTH 0 0
DWIDTH 0 0
BBX 7 8 1 10
BITMAP
0A
20
24
2A
26
5C
80
7E
ENDCHAR
STARTCHAR char1752
ENCODING 1752
SWIDTH 0 0
DWIDTH 0 0
BBX 4 4 1 10
BITMAP
20
50
60
80
ENDCHAR
STARTCHAR char1753
ENCODING 1753
SWIDTH 0 0
DWIDTH 0 0
BBX 4 6 1 10
BITMAP
90
50
50
30
60
60
ENDCHAR
STARTCHAR char1754
ENCODING 1754
SWIDTH 0 0
DWIDTH 0 0
BBX 7 8 1 10
BITMAP
60
9C
20
40
48
40
42
3C
ENDCHAR
STARTCHAR char1755
ENCODING 1755
SWIDTH 0 0
DWIDTH 0 0
BBX 3 3 1 10
BITMAP
40
00
A0
ENDCHAR
STARTCHAR char1756
ENCODING 1756
SWIDTH 0 0
DWIDTH 0 0
BBX 9 4 1 10
BITMAP
0A80
4D00
8800
7000
ENDCHAR
STARTCHAR C095
ENCODING 1759
SWIDTH 0 0
DWIDTH 0 0
BBX 3 3 1 10
BITMAP
40
E0
40
ENDCHAR
STARTCHAR C095
ENCODING 1760
SWIDTH 0 0
DWIDTH 0 0
BBX 2 3 1 10
BITMAP
C0
C0
C0
ENDCHAR
STARTCHAR char1754
ENCODING 1761
SWIDTH 0 0
DWIDTH 0 0
BBX 5 3 1 14
BITMAP
60
10
F8
ENDCHAR
STARTCHAR char1754
ENCODING 1762
SWIDTH 0 0
DWIDTH 0 0
BBX 4 8 1 10
BITMAP
40
20
70
80
80
80
80
80
ENDCHAR
STARTCHAR char1756
ENCODING 1763
SWIDTH 0 0
DWIDTH 0 0
BBX 9 4 1 -5
BITMAP
0A80
4D00
8800
7000
ENDCHAR
STARTCHAR char1764
ENCODING 1764
SWIDTH 0 0
DWIDTH 0 0
BBX 5 2 1 10
BITMAP
48
B0
ENDCHAR
STARTCHAR char1765
ENCODING 1765
SWIDTH 360 0
DWIDTH 6 0
BBX 4 6 1 4
BITMAP
20
50
30
10
20
C0
ENDCHAR
STARTCHAR char1765
ENCODING 1766
SWIDTH 600 0
DWIDTH 10 0
BBX 9 5 1 4
BITMAP
1000
2800
4000
8000
FF80
ENDCHAR
STARTCHAR char1765
ENCODING 1767
SWIDTH 0 0
DWIDTH 0 0
BBX 9 5 1 10
BITMAP
1000
2800
4000
8000
FF80
ENDCHAR
STARTCHAR char1768
ENCODING 1768
SWIDTH 0 0
DWIDTH 0 0
BBX 4 5 1 10
BITMAP
40
10
90
90
60
ENDCHAR
STARTCHAR char1770
ENCODING 1770
SWIDTH 0 0
DWIDTH 0 0
BBX 5 5 1 -6
BITMAP
20
50
88
50
20
ENDCHAR
STARTCHAR char1770
ENCODING 1771
SWIDTH 0 0
DWIDTH 0 0
BBX 5 5 1 10
BITMAP
20
50
88
50
20
ENDCHAR
STARTCHAR C095
ENCODING 1772
SWIDTH 0 0
DWIDTH 0 0
BBX 3 3 1 10
BITMAP
40
E0
40
ENDCHAR
STARTCHAR char1754
ENCODING 1773
SWIDTH 0 0
DWIDTH 0 0
BBX 4 8 1 -9
BITMAP
40
20
70
80
80
80
80
80
ENDCHAR
STARTCHAR uni06F0
ENCODING 1776
SWIDTH 240 0
DWIDTH 4 0
BBX 3 3 1 3
BITMAP
40
E0
40
ENDCHAR
STARTCHAR uni06F1
ENCODING 1777
SWIDTH 300 0
DWIDTH 5 0
BBX 3 10 1 0
BITMAP
C0
C0
C0
E0
60
60
20
20
20
20
ENDCHAR
STARTCHAR uni06F2
ENCODING 1778
SWIDTH 480 0
DWIDTH 8 0
BBX 6 10 1 0
BITMAP
C4
FC
F8
60
60
60
20
20
20
20
ENDCHAR
STARTCHAR uni06F3
ENCODING 1779
SWIDTH 480 0
DWIDTH 8 0
BBX 6 10 1 0
BITMAP
94
FC
E8
60
60
60
20
20
20
20
ENDCHAR
STARTCHAR uni06F4
ENCODING 1780
SWIDTH 480 0
DWIDTH 8 0
BBX 6 10 1 0
BITMAP
98
FC
C0
64
7C
78
20
20
20
20
ENDCHAR
STARTCHAR uni06F5
ENCODING 1781
SWIDTH 480 0
DWIDTH 8 0
BBX 6 10 1 0
BITMAP
20
30
70
58
58
8C
84
94
FC
68
ENDCHAR
STARTCHAR uni06F6
ENCODING 1782
SWIDTH 480 0
DWIDTH 8 0
BBX 6 10 1 0
BITMAP
30
78
C0
C4
78
30
60
C0
80
80
ENDCHAR
STARTCHAR uni06F7
ENCODING 1783
SWIDTH 480 0
DWIDTH 8 0
BBX 6 10 1 0
BITMAP
84
84
CC
C8
68
68
38
30
10
10
ENDCHAR
STARTCHAR uni06F8
ENCODING 1784
SWIDTH 480 0
DWIDTH 8 0
BBX 6 10 1 0
BITMAP
20
20
30
70
58
58
4C
CC
84
84
ENDCHAR
STARTCHAR uni06F9
ENCODING 1785
SWIDTH 420 0
DWIDTH 7 0
BBX 5 10 1 0
BITMAP
60
B0
90
F0
50
10
18
18
08
08
ENDCHAR
STARTCHAR uni06FA
ENCODING 1786
SWIDTH 960 0
DWIDTH 16 0
BBX 15 14 1 -5
BITMAP
0010
0010
0028
0028
0000
0000
0112
0112
40EC
8080
8080
8088
4308
3C00
ENDCHAR
STARTCHAR uni06FB
ENCODING 1787
SWIDTH 1080 0
DWIDTH 18 0
BBX 17 12 1 -5
BITMAP
002000
002000
000000
000700
001880
012080
40FF00
80C000
808000
808400
430400
3C0000
ENDCHAR
STARTCHAR uni06FC
ENCODING 1788
SWIDTH 600 0
DWIDTH 10 0
BBX 9 16 1 -7
BITMAP
2000
2000
0000
0000
3800
4000
8000
4C00
3000
4000
4000
8800
8800
8000
4180
3E00
ENDCHAR
STARTCHAR uni06FD
ENCODING 1789
SWIDTH 300 0
DWIDTH 5 0
BBX 4 13 1 0
BITMAP
70
80
80
70
C0
80
00
50
50
50
50
50
50
ENDCHAR
STARTCHAR uni06FE
ENCODING 1790
SWIDTH 420 0
DWIDTH 7 0
BBX 6 13 1 -1
BITMAP
40
B0
08
7C
80
80
94
94
94
94
94
94
80
ENDCHAR
STARTCHAR uni0000
ENCODING 58880
SWIDTH 300 0
DWIDTH 5 0
BBX 5 15 -1 0
BITMAP
18
20
18
E0
00
10
18
10
10
10
10
10
10
10
10
ENDCHAR
STARTCHAR uni0001
ENCODING 58881
SWIDTH 300 0
DWIDTH 5 0
BBX 6 16 -1 0
BITMAP
18
20
18
E0
00
00
10
18
10
10
10
10
10
10
10
0C
ENDCHAR
STARTCHAR uni0002
ENCODING 58882
SWIDTH 300 0
DWIDTH 5 0
BBX 5 15 -1 -5
BITMAP
10
18
10
10
10
10
10
10
10
10
00
18
20
18
E0
ENDCHAR
STARTCHAR uni0003
ENCODING 58883
SWIDTH 300 0
DWIDTH 5 0
BBX 6 16 -1 -6
BITMAP
10
18
10
10
10
10
10
10
10
0C
00
00
18
20
18
E0
ENDCHAR
STARTCHAR uni0004
ENCODING 58884
SWIDTH 360 0
DWIDTH 6 0
BBX 6 13 2 0
BITMAP
0C
10
0C
90
C0
80
80
80
80
80
80
80
80
ENDCHAR
STARTCHAR uni0005
ENCODING 58885
SWIDTH 360 0
DWIDTH 6 0
BBX 6 13 2 0
BITMAP
0C
10
8C
90
C0
80
80
80
80
80
80
80
60
ENDCHAR
STARTCHAR uni0006
ENCODING 58886
SWIDTH 540 0
DWIDTH 9 0
BBX 9 14 0 -3
BITMAP
0180
0200
0180
0200
0000
0000
0400
0A00
0A00
0E00
0200
0200
8400
7800
ENDCHAR
STARTCHAR uni0007
ENCODING 58887
SWIDTH 600 0
DWIDTH 10 0
BBX 9 14 1 -4
BITMAP
0180
0200
0180
0200
0000
0000
0400
0A00
0A00
0780
0200
0200
8400
7800
ENDCHAR
STARTCHAR uni0008
ENCODING 58888
SWIDTH 840 0
DWIDTH 14 0
BBX 13 14 1 -2
BITMAP
0018
0020
0018
0020
0000
0000
01E0
0200
4200
8180
8040
8040
4180
3E00
ENDCHAR
STARTCHAR uni0009
ENCODING 58889
SWIDTH 780 0
DWIDTH 13 0
BBX 13 12 1 -5
BITMAP
0018
0020
0018
0020
0000
0000
41E0
8200
8180
8040
4180
3E00
ENDCHAR
STARTCHAR uni000A
ENCODING 58890
SWIDTH 420 0
DWIDTH 7 0
BBX 7 11 0 0
BITMAP
06
08
06
08
00
00
10
08
08
08
F0
ENDCHAR
STARTCHAR uni000B
ENCODING 58891
SWIDTH 360 0
DWIDTH 6 0
BBX 7 10 0 0
BITMAP
06
08
06
08
00
00
10
10
10
FC
ENDCHAR
STARTCHAR uni000C
ENCODING 58892
SWIDTH 780 0
DWIDTH 13 0
BBX 13 11 0 -4
BITMAP
0500
0500
0008
4008
8008
8008
C030
7FC0
0600
0900
0600
ENDCHAR
STARTCHAR uni000D
ENCODING 58893
SWIDTH 900 0
DWIDTH 15 0
BBX 15 11 1 -4
BITMAP
0500
0500
0000
4000
8010
8010
C07E
7F80
0600
0900
0600
ENDCHAR
STARTCHAR uni000E
ENCODING 58894
SWIDTH 360 0
DWIDTH 6 0
BBX 5 11 0 -3
BITMAP
28
28
00
10
08
08
08
F0
60
90
60
ENDCHAR
STARTCHAR uni000F
ENCODING 58895
SWIDTH 360 0
DWIDTH 6 0
BBX 6 10 0 -3
BITMAP
28
28
00
10
10
10
FC
60
90
60
ENDCHAR
STARTCHAR uni0010
ENCODING 58896
SWIDTH 840 0
DWIDTH 14 0
BBX 13 10 1 -1
BITMAP
0500
0500
0200
0200
0008
4008
8008
8008
C030
7FC0
ENDCHAR
STARTCHAR uni0011
ENCODING 58897
SWIDTH 900 0
DWIDTH 15 0
BBX 15 10 1 -1
BITMAP
0500
0500
0200
0200
0000
4000
8010
8010
C07E
7F80
ENDCHAR
STARTCHAR uni0012
ENCODING 58898
SWIDTH 360 0
DWIDTH 6 0
BBX 5 10 0 0
BITMAP
28
28
10
10
00
10
08
08
08
F0
ENDCHAR
STARTCHAR uni0013
ENCODING 58899
SWIDTH 360 0
DWIDTH 6 0
BBX 6 10 0 0
BITMAP
28
28
10
10
00
00
10
10
10
FC
ENDCHAR
STARTCHAR uni0014
ENCODING 58900
SWIDTH 660 0
DWIDTH 11 0
BBX 10 17 1 -6
BITMAP
0C00
1000
0C00
1000
0000
0000
7000
8F00
3800
4000
4000
8000
8000
8000
4000
60C0
1F00
ENDCHAR
STARTCHAR uni0015
ENCODING 58901
SWIDTH 600 0
DWIDTH 10 0
BBX 10 17 1 -6
BITMAP
0600
0800
0600
0800
0000
0000
7000
8F00
3A00
4200
41C0
8000
8000
8000
4000
60C0
1F00
ENDCHAR
STARTCHAR uni0016
ENCODING 58902
SWIDTH 600 0
DWIDTH 10 0
BBX 9 10 0 0
BITMAP
0300
0400
0300
0400
0000
0000
3800
4600
0100
FF80
ENDCHAR
STARTCHAR uni0016
ENCODING 58903
SWIDTH 600 0
DWIDTH 10 0
BBX 10 10 0 0
BITMAP
0300
0400
0300
0400
0000
0000
3800
4600
0100
FFC0
ENDCHAR
STARTCHAR uni0018
ENCODING 58904
SWIDTH 660 0
DWIDTH 11 0
BBX 10 18 1 -6
BITMAP
0800
0800
0000
0800
0800
0000
0000
7000
8F00
3800
4000
4000
8000
8000
8000
4000
60C0
1F00
ENDCHAR
STARTCHAR uni0019
ENCODING 58905
SWIDTH 600 0
DWIDTH 10 0
BBX 10 18 1 -6
BITMAP
0800
0800
0000
0800
0800
0000
0000
7000
8F00
3A00
4200
41C0
8000
8000
8000
4000
60C0
1F00
ENDCHAR
STARTCHAR uni0016
ENCODING 58906
SWIDTH 600 0
DWIDTH 10 0
BBX 9 11 0 0
BITMAP
0800
0800
0000
0800
0800
0000
0000
3800
4600
0100
FF80
ENDCHAR
STARTCHAR uni0016
ENCODING 58907
SWIDTH 600 0
DWIDTH 10 0
BBX 10 11 1 0
BITMAP
0800
0800
0000
0800
0800
0000
0000
3800
4600
0100
FFC0
ENDCHAR
STARTCHAR uni001C
ENCODING 58908
SWIDTH 660 0
DWIDTH 11 0
BBX 10 17 1 -6
BITMAP
0800
0800
1400
1400
0000
0000
7000
8F00
3800
4000
4000
8000
8000
8000
4000
60C0
1F00
ENDCHAR
STARTCHAR uni001D
ENCODING 58909
SWIDTH 600 0
DWIDTH 10 0
BBX 10 17 1 -6
BITMAP
0800
0800
1400
1400
0000
0000
7000
8F00
3A00
4200
41C0
8000
8000
8000
4000
60C0
1F00
ENDCHAR
STARTCHAR uni0016
ENCODING 58910
SWIDTH 600 0
DWIDTH 10 0
BBX 9 10 0 0
BITMAP
0800
0800
1400
1400
0000
0000
3800
4600
0100
FF80
ENDCHAR
STARTCHAR uni0016
ENCODING 58911
SWIDTH 600 0
DWIDTH 10 0
BBX 10 10 1 0
BITMAP
0800
0800
1400
1400
0000
0000
3800
4600
0100
FFC0
ENDCHAR
STARTCHAR uni0020
ENCODING 58912
SWIDTH 360 0
DWIDTH 6 0
BBX 5 9 1 -3
BITMAP
10
10
08
08
98
60
20
50
20
ENDCHAR
STARTCHAR uni0021
ENCODING 58913
SWIDTH 420 0
DWIDTH 7 0
BBX 7 9 1 -2
BITMAP
10
10
08
08
08
98
66
50
20
ENDCHAR
STARTCHAR uni0022
ENCODING 58914
SWIDTH 360 0
DWIDTH 6 0
BBX 5 10 1 -4
BITMAP
10
10
08
08
98
60
00
00
20
20
ENDCHAR
STARTCHAR uni0023
ENCODING 58915
SWIDTH 420 0
DWIDTH 7 0
BBX 7 11 1 -4
BITMAP
10
10
08
08
08
98
66
00
00
20
20
ENDCHAR
STARTCHAR uni0024
ENCODING 58916
SWIDTH 360 0
DWIDTH 6 0
BBX 5 16 1 -4
BITMAP
40
40
70
70
00
00
10
10
08
08
98
60
00
00
20
20
ENDCHAR
STARTCHAR uni0025
ENCODING 58917
SWIDTH 420 0
DWIDTH 7 0
BBX 7 17 1 -4
BITMAP
40
40
70
70
00
00
10
10
08
08
08
98
66
00
00
20
20
ENDCHAR
STARTCHAR uni0026
ENCODING 58918
SWIDTH 360 0
DWIDTH 6 0
BBX 5 12 1 0
BITMAP
50
50
20
20
00
00
10
10
08
08
98
60
ENDCHAR
STARTCHAR uni0027
ENCODING 58919
SWIDTH 420 0
DWIDTH 7 0
BBX 7 13 1 0
BITMAP
50
50
20
20
00
00
10
10
08
08
08
98
66
ENDCHAR
STARTCHAR uni0028
ENCODING 58920
SWIDTH 360 0
DWIDTH 6 0
BBX 5 13 1 0
BITMAP
50
50
00
50
50
00
00
10
10
08
08
98
60
ENDCHAR
STARTCHAR uni0029
ENCODING 58921
SWIDTH 420 0
DWIDTH 7 0
BBX 7 14 1 0
BITMAP
50
50
00
50
50
00
00
10
10
08
08
08
98
66
ENDCHAR
STARTCHAR uni002A
ENCODING 58922
SWIDTH 480 0
DWIDTH 8 0
BBX 7 13 1 -4
BITMAP
22
14
08
00
00
08
08
04
04
04
0C
18
F0
ENDCHAR
STARTCHAR uni002B
ENCODING 58923
SWIDTH 540 0
DWIDTH 9 0
BBX 8 13 1 -5
BITMAP
22
14
08
00
00
08
0C
07
04
04
0C
18
F0
ENDCHAR
STARTCHAR uni002C
ENCODING 58924
SWIDTH 420 0
DWIDTH 7 0
BBX 6 9 1 -5
BITMAP
08
08
04
04
04
0C
18
F4
0C
ENDCHAR
STARTCHAR uni002D
ENCODING 58925
SWIDTH 540 0
DWIDTH 9 0
BBX 8 9 1 -6
BITMAP
08
0C
07
04
04
0C
18
F4
0C
ENDCHAR
STARTCHAR uni002E
ENCODING 58926
SWIDTH 420 0
DWIDTH 7 0
BBX 6 10 1 -6
BITMAP
08
08
04
04
04
0C
18
F0
04
04
ENDCHAR
STARTCHAR uni002F
ENCODING 58927
SWIDTH 540 0
DWIDTH 9 0
BBX 8 10 1 -7
BITMAP
08
0C
07
04
04
0C
18
F0
04
04
ENDCHAR
STARTCHAR uni0030
ENCODING 58928
SWIDTH 420 0
DWIDTH 7 0
BBX 6 12 1 -8
BITMAP
08
08
04
04
04
0C
18
F0
00
44
28
10
ENDCHAR
STARTCHAR uni0031
ENCODING 58929
SWIDTH 540 0
DWIDTH 9 0
BBX 8 12 1 -9
BITMAP
08
0C
07
04
04
0C
18
F0
00
44
28
10
ENDCHAR
STARTCHAR uni0032
ENCODING 58930
SWIDTH 420 0
DWIDTH 7 0
BBX 6 10 1 -6
BITMAP
08
08
04
44
44
0C
18
F0
04
04
ENDCHAR
STARTCHAR uni0033
ENCODING 58931
SWIDTH 540 0
DWIDTH 9 0
BBX 8 10 1 -7
BITMAP
08
0C
07
44
44
0C
18
F0
04
04
ENDCHAR
STARTCHAR uni0034
ENCODING 58932
SWIDTH 420 0
DWIDTH 7 0
BBX 6 12 1 -4
BITMAP
14
14
00
00
08
08
04
04
04
0C
18
F0
ENDCHAR
STARTCHAR uni0035
ENCODING 58933
SWIDTH 540 0
DWIDTH 9 0
BBX 8 12 1 -5
BITMAP
14
14
00
00
08
0C
07
04
04
0C
18
F0
ENDCHAR
STARTCHAR uni0036
ENCODING 58934
SWIDTH 420 0
DWIDTH 7 0
BBX 6 15 1 -4
BITMAP
14
14
00
14
14
00
00
08
08
04
04
04
0C
18
F0
ENDCHAR
STARTCHAR uni0037
ENCODING 58935
SWIDTH 540 0
DWIDTH 9 0
BBX 8 15 1 -5
BITMAP
14
14
00
14
14
00
00
08
0C
07
04
04
0C
18
F0
ENDCHAR
STARTCHAR uni0038
ENCODING 58936
SWIDTH 960 0
DWIDTH 16 0
BBX 15 12 1 -5
BITMAP
0010
0010
0000
0000
0112
0112
40EC
8080
8080
8088
4308
3C00
ENDCHAR
STARTCHAR uni0039
ENCODING 58937
SWIDTH 1020 0
DWIDTH 17 0
BBX 17 12 1 -5
BITMAP
001000
001000
000000
000000
011200
011200
40FF80
808000
808000
808800
430800
3C0000
ENDCHAR
STARTCHAR uni003A
ENCODING 58938
SWIDTH 720 0
DWIDTH 12 0
BBX 11 11 0 -4
BITMAP
0100
0100
0000
0000
1120
1120
FFE0
0000
0000
0080
0080
ENDCHAR
STARTCHAR uni003B
ENCODING 58939
SWIDTH 780 0
DWIDTH 13 0
BBX 13 11 0 -4
BITMAP
0100
0100
0000
0000
1120
1120
FFF8
0000
0000
0080
0080
ENDCHAR
STARTCHAR uni003C
ENCODING 58940
SWIDTH 960 0
DWIDTH 16 0
BBX 15 9 1 -6
BITMAP
0112
0112
40EC
8080
8080
8094
4314
3C08
0008
ENDCHAR
STARTCHAR uni003D
ENCODING 58941
SWIDTH 1020 0
DWIDTH 17 0
BBX 17 9 1 -6
BITMAP
011200
011200
40FF80
808000
808000
809400
431400
3C0800
000800
ENDCHAR
STARTCHAR uni003E
ENCODING 58942
SWIDTH 720 0
DWIDTH 12 0
BBX 11 9 0 -6
BITMAP
1120
1120
FFE0
0000
0000
0280
0280
0100
0100
ENDCHAR
STARTCHAR uni003F
ENCODING 58943
SWIDTH 780 0
DWIDTH 13 0
BBX 13 9 0 -6
BITMAP
1120
1120
FFF8
0000
0000
0280
0280
0100
0100
ENDCHAR
STARTCHAR uni0040
ENCODING 58944
SWIDTH 960 0
DWIDTH 16 0
BBX 15 15 1 -6
BITMAP
0010
0010
0028
0028
0000
0000
0112
0112
40EC
8080
8080
8094
4314
3C08
0008
ENDCHAR
STARTCHAR uni0041
ENCODING 58945
SWIDTH 1020 0
DWIDTH 17 0
BBX 17 15 1 -6
BITMAP
001000
001000
002800
002800
000000
000000
011200
011200
40FF80
808000
808000
809400
431400
3C0800
000800
ENDCHAR
STARTCHAR uni0042
ENCODING 58946
SWIDTH 720 0
DWIDTH 12 0
BBX 11 15 0 -6
BITMAP
0100
0100
0280
0280
0000
0000
1120
1120
FFE0
0000
0000
0280
0280
0100
0100
ENDCHAR
STARTCHAR uni0043
ENCODING 58947
SWIDTH 780 0
DWIDTH 13 0
BBX 13 15 0 -6
BITMAP
0100
0100
0280
0280
0000
0000
1120
1120
FFF8
0000
0000
0280
0280
0100
0100
ENDCHAR
STARTCHAR uni0044
ENCODING 58948
SWIDTH 1080 0
DWIDTH 18 0
BBX 17 9 1 -5
BITMAP
000700
001880
012080
40FF00
80C000
808000
808A00
430A00
3C0000
ENDCHAR
STARTCHAR uni0045
ENCODING 58949
SWIDTH 1080 0
DWIDTH 18 0
BBX 18 9 1 -5
BITMAP
000700
001880
012080
40FFC0
80C000
808000
808A00
430A00
3C0000
ENDCHAR
STARTCHAR uni0046
ENCODING 58950
SWIDTH 840 0
DWIDTH 14 0
BBX 13 8 0 -4
BITMAP
0070
2188
2208
FFF0
0000
0000
0140
0140
ENDCHAR
STARTCHAR uni0047
ENCODING 58951
SWIDTH 780 0
DWIDTH 13 0
BBX 13 8 0 -4
BITMAP
00E0
2310
2410
FFF8
0000
0000
0280
0280
ENDCHAR
STARTCHAR uni0048
ENCODING 58952
SWIDTH 1080 0
DWIDTH 18 0
BBX 17 15 1 -5
BITMAP
001000
001000
002800
002800
000000
000000
000700
001880
012080
40FF00
80C000
808000
808000
430000
3C0000
ENDCHAR
STARTCHAR uni0049
ENCODING 58953
SWIDTH 1080 0
DWIDTH 18 0
BBX 18 15 1 -5
BITMAP
001000
001000
002800
002800
000000
000000
000700
001880
012080
40FFC0
80C000
808000
808000
430000
3C0000
ENDCHAR
STARTCHAR uni004A
ENCODING 58954
SWIDTH 840 0
DWIDTH 14 0
BBX 13 10 0 0
BITMAP
0100
0100
0280
0280
0000
0000
0070
2188
2208
FFF0
ENDCHAR
STARTCHAR uni004B
ENCODING 58955
SWIDTH 780 0
DWIDTH 13 0
BBX 13 10 0 0
BITMAP
0200
0200
0500
0500
0000
0000
00E0
2310
2410
FFF8
ENDCHAR
STARTCHAR uni004C
ENCODING 58956
SWIDTH 540 0
DWIDTH 9 0
BBX 8 10 1 0
BITMAP
22
32
25
25
20
20
2E
31
21
FE
ENDCHAR
STARTCHAR uni004D
ENCODING 58957
SWIDTH 600 0
DWIDTH 10 0
BBX 10 10 1 0
BITMAP
2200
3200
2500
2500
2000
2000
2E00
3100
2100
FFC0
ENDCHAR
STARTCHAR uni004E
ENCODING 58958
SWIDTH 540 0
DWIDTH 9 0
BBX 8 10 0 0
BITMAP
22
32
25
25
20
20
2E
31
21
FE
ENDCHAR
STARTCHAR uni004F
ENCODING 58959
SWIDTH 600 0
DWIDTH 10 0
BBX 10 10 0 0
BITMAP
2200
3200
2500
2500
2000
2000
2E00
3100
2100
FFC0
ENDCHAR
STARTCHAR uni0050
ENCODING 58960
SWIDTH 600 0
DWIDTH 10 0
BBX 9 18 1 -7
BITMAP
1000
1000
2800
2800
0000
0000
3800
4000
8000
4C00
3000
4000
4000
8000
8000
8000
4180
3E00
ENDCHAR
STARTCHAR uni0051
ENCODING 58961
SWIDTH 540 0
DWIDTH 9 0
BBX 9 17 1 -6
BITMAP
1000
1000
2800
2800
0000
0000
3800
6C00
1000
3800
4780
4000
8000
8000
8000
4180
3E00
ENDCHAR
STARTCHAR uni0052
ENCODING 58962
SWIDTH 420 0
DWIDTH 7 0
BBX 7 11 0 0
BITMAP
08
08
14
14
00
00
1C
20
40
22
FC
ENDCHAR
STARTCHAR uni0053
ENCODING 58963
SWIDTH 480 0
DWIDTH 8 0
BBX 8 11 0 0
BITMAP
08
08
14
14
00
00
1C
36
08
1C
E3
ENDCHAR
STARTCHAR uni0054
ENCODING 58964
SWIDTH 900 0
DWIDTH 15 0
BBX 14 8 1 0
BITMAP
0018
002C
0024
802C
8014
8004
4038
3FC0
ENDCHAR
STARTCHAR uni0055
ENCODING 58965
SWIDTH 960 0
DWIDTH 16 0
BBX 16 8 1 -1
BITMAP
0018
002C
0024
802C
8014
8004
403B
3FC0
ENDCHAR
STARTCHAR uni0056
ENCODING 58966
SWIDTH 360 0
DWIDTH 6 0
BBX 5 7 0 0
BITMAP
30
58
48
58
28
08
F0
ENDCHAR
STARTCHAR uni0057
ENCODING 58967
SWIDTH 480 0
DWIDTH 8 0
BBX 8 6 0 0
BITMAP
18
24
24
18
18
E7
ENDCHAR
STARTCHAR uni0058
ENCODING 58968
SWIDTH 900 0
DWIDTH 15 0
BBX 14 12 1 -4
BITMAP
0018
002C
0024
802C
8014
8004
4038
3FC0
0000
0000
0100
0100
ENDCHAR
STARTCHAR uni0059
ENCODING 58969
SWIDTH 960 0
DWIDTH 16 0
BBX 16 12 1 -5
BITMAP
0018
002C
0024
802C
8014
8004
403B
3FC0
0000
0000
0100
0100
ENDCHAR
STARTCHAR uni005A
ENCODING 58970
SWIDTH 360 0
DWIDTH 6 0
BBX 5 11 0 -4
BITMAP
30
58
48
58
28
08
F0
00
00
80
80
ENDCHAR
STARTCHAR uni005B
ENCODING 58971
SWIDTH 480 0
DWIDTH 8 0
BBX 8 10 0 -4
BITMAP
18
24
24
18
18
E7
00
00
40
40
ENDCHAR
STARTCHAR uni005C
ENCODING 58972
SWIDTH 900 0
DWIDTH 15 0
BBX 14 16 1 -4
BITMAP
0010
0010
0000
0000
0018
002C
0024
802C
8014
8004
4038
3FC0
0000
0000
0100
0100
ENDCHAR
STARTCHAR uni005D
ENCODING 58973
SWIDTH 960 0
DWIDTH 16 0
BBX 16 16 1 -5
BITMAP
0010
0010
0000
0000
0018
002C
0024
802C
8014
8004
403F
3FC0
0000
0000
0100
0100
ENDCHAR
STARTCHAR uni005E
ENCODING 58974
SWIDTH 360 0
DWIDTH 6 0
BBX 5 15 0 -4
BITMAP
20
20
00
00
30
58
48
58
28
08
F0
00
00
80
80
ENDCHAR
STARTCHAR uni005F
ENCODING 58975
SWIDTH 480 0
DWIDTH 8 0
BBX 8 14 0 -4
BITMAP
08
08
00
00
18
24
24
18
18
E7
00
00
40
40
ENDCHAR
STARTCHAR uni0060
ENCODING 58976
SWIDTH 900 0
DWIDTH 15 0
BBX 14 13 1 -5
BITMAP
0018
002C
0024
802C
8014
8004
4038
3FC0
0000
0028
0028
0010
0010
ENDCHAR
STARTCHAR uni0061
ENCODING 58977
SWIDTH 960 0
DWIDTH 16 0
BBX 16 13 1 -6
BITMAP
0018
002C
0024
802C
8014
8004
403B
3FC0
0000
0028
0028
0010
0010
ENDCHAR
STARTCHAR uni0062
ENCODING 58978
SWIDTH 360 0
DWIDTH 6 0
BBX 5 13 0 -6
BITMAP
30
58
48
58
28
08
F0
00
00
50
50
20
20
ENDCHAR
STARTCHAR uni0063
ENCODING 58979
SWIDTH 480 0
DWIDTH 8 0
BBX 8 12 0 -6
BITMAP
18
24
24
18
18
E7
00
00
28
28
10
10
ENDCHAR
STARTCHAR uni0064
ENCODING 58980
SWIDTH 600 0
DWIDTH 10 0
BBX 9 14 1 -3
BITMAP
0200
0200
0000
0000
0300
0580
0480
0480
4380
8080
8080
8100
4200
3C00
ENDCHAR
STARTCHAR uni0065
ENCODING 58981
SWIDTH 720 0
DWIDTH 12 0
BBX 11 14 1 -5
BITMAP
0200
0200
0000
0000
0300
0580
0480
0480
43E0
8080
8080
8100
4200
3C00
ENDCHAR
STARTCHAR uni0066
ENCODING 58982
SWIDTH 240 0
DWIDTH 4 0
BBX 5 11 0 0
BITMAP
20
20
00
00
30
58
48
58
28
08
F0
ENDCHAR
STARTCHAR uni0067
ENCODING 58983
SWIDTH 480 0
DWIDTH 8 0
BBX 8 10 0 0
BITMAP
10
10
00
00
18
24
24
28
10
FF
ENDCHAR
STARTCHAR uni0068
ENCODING 58984
SWIDTH 600 0
DWIDTH 10 0
BBX 9 16 1 -3
BITMAP
0200
0200
0500
0500
0000
0000
0300
0580
0480
0480
4380
8080
8080
8100
4200
3C00
ENDCHAR
STARTCHAR uni0069
ENCODING 58985
SWIDTH 720 0
DWIDTH 12 0
BBX 11 16 1 -5
BITMAP
0200
0200
0500
0500
0000
0000
0300
0580
0480
0480
43E0
8080
8080
8100
4200
3C00
ENDCHAR
STARTCHAR uni006A
ENCODING 58986
SWIDTH 240 0
DWIDTH 4 0
BBX 5 13 0 0
BITMAP
20
20
50
50
00
00
30
58
48
58
28
08
F0
ENDCHAR
STARTCHAR uni006B
ENCODING 58987
SWIDTH 480 0
DWIDTH 8 0
BBX 8 12 0 0
BITMAP
10
10
28
28
00
00
18
24
24
28
10
FF
ENDCHAR
STARTCHAR uni006C
ENCODING 58988
SWIDTH 960 0
DWIDTH 16 0
BBX 14 9 0 0
BITMAP
0180
0600
1800
2000
2000
1FF8
0004
8004
7FF8
ENDCHAR
STARTCHAR uni006D
ENCODING 58989
SWIDTH 1020 0
DWIDTH 17 0
BBX 16 9 1 0
BITMAP
0180
0600
1800
2000
2000
1FF8
0004
8004
7FFF
ENDCHAR
STARTCHAR uni006E
ENCODING 58990
SWIDTH 900 0
DWIDTH 15 0
BBX 14 9 0 0
BITMAP
0180
0600
1800
2000
2000
1FF8
0004
0004
FFF8
ENDCHAR
STARTCHAR uni006F
ENCODING 58991
SWIDTH 960 0
DWIDTH 16 0
BBX 16 9 0 0
BITMAP
0180
0600
1800
2000
2000
1FF8
0004
0004
FFFF
ENDCHAR
STARTCHAR uni0070
ENCODING 58992
SWIDTH 840 0
DWIDTH 14 0
BBX 13 11 1 -1
BITMAP
0008
0030
00E8
0128
0110
0080
4060
8010
8010
8060
7F80
ENDCHAR
STARTCHAR uni0071
ENCODING 58993
SWIDTH 960 0
DWIDTH 16 0
BBX 15 10 1 0
BITMAP
0008
0030
00E8
0128
0110
4080
8060
8010
8010
7FFE
ENDCHAR
STARTCHAR uni0072
ENCODING 58994
SWIDTH 540 0
DWIDTH 9 0
BBX 8 10 0 0
BITMAP
01
06
1D
25
22
10
0C
02
02
FC
ENDCHAR
STARTCHAR uni0073
ENCODING 58995
SWIDTH 660 0
DWIDTH 11 0
BBX 11 10 0 0
BITMAP
0080
0300
0E80
1280
1100
0800
0600
0100
0100
FFE0
ENDCHAR
STARTCHAR uni0075
ENCODING 58996
SWIDTH 660 0
DWIDTH 11 0
BBX 10 13 1 0
BITMAP
0400
0400
0000
0080
00C0
0080
0480
0C80
0480
8C80
8080
C080
7F00
ENDCHAR
STARTCHAR uni0075
ENCODING 58997
SWIDTH 660 0
DWIDTH 11 0
BBX 11 13 1 0
BITMAP
0400
0400
0000
0080
00C0
0080
0480
0C80
0480
8C80
8080
C080
7FE0
ENDCHAR
STARTCHAR uni0076
ENCODING 58998
SWIDTH 540 0
DWIDTH 9 0
BBX 8 13 0 0
BITMAP
08
08
00
01
06
18
20
20
10
0C
02
02
FC
ENDCHAR
STARTCHAR uni0077
ENCODING 58999
SWIDTH 660 0
DWIDTH 11 0
BBX 11 13 0 0
BITMAP
0400
0400
0000
0080
0300
0C00
1000
1000
0800
0600
0100
0100
FFE0
ENDCHAR
STARTCHAR uni0079
ENCODING 59000
SWIDTH 660 0
DWIDTH 11 0
BBX 10 19 1 -6
BITMAP
0400
0400
0000
0080
00C0
0080
0480
0C80
0480
8C80
8080
C080
7F00
0000
0000
1400
1400
0800
0800
ENDCHAR
STARTCHAR uni0079
ENCODING 59001
SWIDTH 660 0
DWIDTH 11 0
BBX 11 19 1 -6
BITMAP
0400
0400
0000
0080
00C0
0080
0480
0C80
0480
8C80
8080
C080
7FE0
0000
0000
1400
1400
0800
0800
ENDCHAR
STARTCHAR uni007A
ENCODING 59002
SWIDTH 540 0
DWIDTH 9 0
BBX 8 19 0 -6
BITMAP
08
08
00
01
06
18
20
20
10
0C
02
02
FC
00
00
50
50
20
20
ENDCHAR
STARTCHAR uni007B
ENCODING 59003
SWIDTH 660 0
DWIDTH 11 0
BBX 11 19 0 -6
BITMAP
0400
0400
0000
0080
0300
0C00
1000
1000
0800
0600
0100
0100
FFE0
0000
0000
2800
2800
1000
1000
ENDCHAR
STARTCHAR uni007C
ENCODING 59004
SWIDTH 840 0
DWIDTH 14 0
BBX 13 14 1 -1
BITMAP
0008
0030
00C0
0108
0030
00E8
0128
0110
0080
4060
8010
8010
8060
7F80
ENDCHAR
STARTCHAR uni007D
ENCODING 59005
SWIDTH 960 0
DWIDTH 16 0
BBX 15 13 1 0
BITMAP
0008
0030
00C0
0108
0030
00E8
0128
0110
4080
8060
8010
8010
7FFE
ENDCHAR
STARTCHAR uni007E
ENCODING 59006
SWIDTH 480 0
DWIDTH 8 0
BBX 8 13 0 0
BITMAP
01
06
18
21
07
1D
25
22
10
0C
02
02
FC
ENDCHAR
STARTCHAR uni007F
ENCODING 59007
SWIDTH 660 0
DWIDTH 11 0
BBX 11 13 0 0
BITMAP
0080
0300
0C00
1080
0300
0E80
1280
1100
0800
0600
0100
0100
FFE0
ENDCHAR
STARTCHAR uni0080
ENCODING 59008
SWIDTH 840 0
DWIDTH 14 0
BBX 13 18 1 -5
BITMAP
0008
0030
00C0
0108
0030
00C0
0100
0100
0080
4060
8010
8010
C060
7F80
0000
0000
0500
0500
ENDCHAR
STARTCHAR uni0081
ENCODING 59009
SWIDTH 960 0
DWIDTH 16 0
BBX 15 17 1 -4
BITMAP
0008
0030
00C0
0108
0030
00C0
0100
0100
4080
8060
8010
8010
7FFE
0000
0000
0500
0500
ENDCHAR
STARTCHAR uni0082
ENCODING 59010
SWIDTH 540 0
DWIDTH 9 0
BBX 8 17 0 -4
BITMAP
01
06
18
21
06
18
20
20
10
0C
02
02
FC
00
00
50
50
ENDCHAR
STARTCHAR uni0083
ENCODING 59011
SWIDTH 660 0
DWIDTH 11 0
BBX 11 17 0 -4
BITMAP
0080
0300
0C00
1080
0300
0C00
1000
1000
0800
0600
0100
0100
FFE0
0000
0000
2800
2800
ENDCHAR
STARTCHAR uni0084
ENCODING 59012
SWIDTH 840 0
DWIDTH 14 0
BBX 13 18 1 -1
BITMAP
0080
0080
0020
00A0
0088
0030
00C0
0108
0030
00C0
0100
0100
0080
4060
8010
8010
8060
7F80
ENDCHAR
STARTCHAR uni0085
ENCODING 59013
SWIDTH 960 0
DWIDTH 16 0
BBX 15 17 1 0
BITMAP
0080
0080
0020
00A0
0088
0030
00C0
0108
0030
00C0
0100
0100
4080
8060
8010
8010
7FFE
ENDCHAR
STARTCHAR uni0086
ENCODING 59014
SWIDTH 480 0
DWIDTH 8 0
BBX 8 17 0 0
BITMAP
10
10
04
14
11
06
18
21
06
18
20
20
10
0C
02
02
FC
ENDCHAR
STARTCHAR uni0087
ENCODING 59015
SWIDTH 660 0
DWIDTH 11 0
BBX 11 17 0 0
BITMAP
0800
0800
0200
0A00
0880
0300
0C00
1080
0300
0C00
1000
1000
0800
0600
0100
0100
FFE0
ENDCHAR
STARTCHAR uni0088
ENCODING 59016
SWIDTH 600 0
DWIDTH 10 0
BBX 9 17 1 -2
BITMAP
0880
0500
0200
0000
0000
0200
0300
0200
0200
0200
0200
0200
4200
8200
8200
8400
7800
ENDCHAR
STARTCHAR uni0089
ENCODING 59017
SWIDTH 540 0
DWIDTH 9 0
BBX 9 19 1 -4
BITMAP
0880
0500
0200
0000
0000
0200
0300
0200
0200
0200
0200
0200
0200
0200
4380
8200
8200
8400
7800
ENDCHAR
STARTCHAR uni008A
ENCODING 59018
SWIDTH 300 0
DWIDTH 5 0
BBX 5 15 0 0
BITMAP
88
50
20
00
00
20
30
20
20
20
20
20
20
20
C0
ENDCHAR
STARTCHAR uni008B
ENCODING 59019
SWIDTH 300 0
DWIDTH 5 0
BBX 5 15 0 0
BITMAP
88
50
20
00
00
20
30
20
20
20
20
20
20
20
F0
ENDCHAR
STARTCHAR uni008C
ENCODING 59020
SWIDTH 540 0
DWIDTH 9 0
BBX 8 16 1 -2
BITMAP
02
02
00
00
02
03
02
02
02
02
02
42
82
82
84
78
ENDCHAR
STARTCHAR uni008D
ENCODING 59021
SWIDTH 540 0
DWIDTH 9 0
BBX 9 18 1 -4
BITMAP
0200
0200
0000
0000
0200
0300
0200
0200
0200
0200
0200
0200
0200
4380
8200
8200
8400
7800
ENDCHAR
STARTCHAR uni008E
ENCODING 59022
SWIDTH 300 0
DWIDTH 5 0
BBX 4 14 0 0
BITMAP
20
20
00
00
20
30
20
20
20
20
20
20
20
C0
ENDCHAR
STARTCHAR uni008F
ENCODING 59023
SWIDTH 240 0
DWIDTH 4 0
BBX 4 14 0 0
BITMAP
20
20
00
00
20
30
20
20
20
20
20
20
20
F0
ENDCHAR
STARTCHAR uni0090
ENCODING 59024
SWIDTH 540 0
DWIDTH 9 0
BBX 8 18 1 -2
BITMAP
02
02
05
05
00
00
02
03
02
02
02
02
02
42
82
82
84
78
ENDCHAR
STARTCHAR uni0091
ENCODING 59025
SWIDTH 540 0
DWIDTH 9 0
BBX 9 20 1 -4
BITMAP
0200
0200
0500
0500
0000
0000
0200
0300
0200
0200
0200
0200
0200
0200
0200
4380
8200
8200
8400
7800
ENDCHAR
STARTCHAR uni0092
ENCODING 59026
SWIDTH 300 0
DWIDTH 5 0
BBX 4 16 0 0
BITMAP
20
20
50
50
00
00
20
30
20
20
20
20
20
20
20
C0
ENDCHAR
STARTCHAR uni0093
ENCODING 59027
SWIDTH 240 0
DWIDTH 4 0
BBX 4 16 0 0
BITMAP
20
20
50
50
00
00
20
30
20
20
20
20
20
20
20
F0
ENDCHAR
STARTCHAR uni0094
ENCODING 59028
SWIDTH 600 0
DWIDTH 10 0
BBX 9 11 1 -3
BITMAP
1000
1000
0000
0200
0200
4100
8100
8100
8300
7E80
0380
ENDCHAR
STARTCHAR uni0095
ENCODING 59029
SWIDTH 540 0
DWIDTH 9 0
BBX 9 11 1 -5
BITMAP
1000
1000
0000
0200
0200
4180
8100
8100
8300
7E80
0380
ENDCHAR
STARTCHAR uni0096
ENCODING 59030
SWIDTH 360 0
DWIDTH 6 0
BBX 5 12 0 -3
BITMAP
20
20
00
00
10
08
08
08
F0
60
90
60
ENDCHAR
STARTCHAR uni0097
ENCODING 59031
SWIDTH 360 0
DWIDTH 6 0
BBX 6 11 0 -3
BITMAP
10
10
00
00
10
10
10
FC
60
90
60
ENDCHAR
STARTCHAR uni0098
ENCODING 59032
SWIDTH 600 0
DWIDTH 10 0
BBX 8 12 1 -2
BITMAP
08
08
14
14
00
02
02
41
81
81
82
7C
ENDCHAR
STARTCHAR uni0099
ENCODING 59033
SWIDTH 540 0
DWIDTH 9 0
BBX 9 12 1 -4
BITMAP
0800
0800
1400
1400
0000
0200
0200
4180
8100
8100
8200
7C00
ENDCHAR
STARTCHAR uni009A
ENCODING 59034
SWIDTH 360 0
DWIDTH 6 0
BBX 5 11 0 -6
BITMAP
10
08
08
08
F0
00
00
28
28
10
10
ENDCHAR
STARTCHAR uni009B
ENCODING 59035
SWIDTH 360 0
DWIDTH 6 0
BBX 6 10 0 -6
BITMAP
10
10
10
FC
00
00
28
28
10
10
ENDCHAR
STARTCHAR uni009C
ENCODING 59036
SWIDTH 420 0
DWIDTH 7 0
BBX 4 11 1 0
BITMAP
30
40
30
40
00
20
30
50
90
90
60
ENDCHAR
STARTCHAR uni009D
ENCODING 59037
SWIDTH 420 0
DWIDTH 7 0
BBX 6 12 1 0
BITMAP
18
20
18
20
00
10
30
50
90
90
70
0C
ENDCHAR
STARTCHAR uni009E
ENCODING 59038
SWIDTH 300 0
DWIDTH 5 0
BBX 4 11 1 0
BITMAP
30
40
30
40
00
20
30
50
90
90
60
ENDCHAR
STARTCHAR uni009F
ENCODING 59039
SWIDTH 420 0
DWIDTH 7 0
BBX 6 10 1 0
BITMAP
18
20
18
20
00
00
30
78
8C
04
ENDCHAR
STARTCHAR uni00A0
ENCODING 59040
SWIDTH 300 0
DWIDTH 5 0
BBX 4 10 1 0
BITMAP
50
50
00
00
20
30
50
90
90
60
ENDCHAR
STARTCHAR uni00A1
ENCODING 59041
SWIDTH 420 0
DWIDTH 7 0
BBX 6 8 1 0
BITMAP
28
28
00
00
30
78
8C
04
ENDCHAR
STARTCHAR uni00A2
ENCODING 59042
SWIDTH 540 0
DWIDTH 9 0
BBX 7 8 0 -3
BITMAP
04
0A
0A
0E
12
2A
94
78
ENDCHAR
STARTCHAR uni00A3
ENCODING 59043
SWIDTH 600 0
DWIDTH 10 0
BBX 9 8 1 -4
BITMAP
0400
0A00
0A00
0780
1200
2A00
9400
7800
ENDCHAR
STARTCHAR uni00A4
ENCODING 59044
SWIDTH 540 0
DWIDTH 9 0
BBX 7 12 0 -3
BITMAP
0A
0A
00
00
04
0A
0A
0E
02
02
84
78
ENDCHAR
STARTCHAR uni00A5
ENCODING 59045
SWIDTH 600 0
DWIDTH 10 0
BBX 9 12 1 -4
BITMAP
0A00
0A00
0000
0000
0400
0A00
0A00
0780
0200
0200
8400
7800
ENDCHAR
STARTCHAR uni00A6
ENCODING 59046
SWIDTH 780 0
DWIDTH 13 0
BBX 13 8 0 -2
BITMAP
0078
0080
1080
2060
6010
A010
1060
0F80
ENDCHAR
STARTCHAR uni00A7
ENCODING 59047
SWIDTH 840 0
DWIDTH 14 0
BBX 13 6 1 -5
BITMAP
1078
2080
6060
A010
1060
0F80
ENDCHAR
STARTCHAR uni00A8
ENCODING 59048
SWIDTH 660 0
DWIDTH 11 0
BBX 11 11 0 -2
BITMAP
4400
2800
1000
01E0
0200
4200
8180
8040
8040
4180
3E00
ENDCHAR
STARTCHAR uni00A9
ENCODING 59049
SWIDTH 720 0
DWIDTH 12 0
BBX 11 11 1 -5
BITMAP
2200
1400
0800
0000
0000
41E0
8200
8180
8040
4180
3E00
ENDCHAR
STARTCHAR uni00AA
ENCODING 59050
SWIDTH 360 0
DWIDTH 6 0
BBX 6 10 0 0
BITMAP
44
28
10
00
00
10
08
08
08
F0
ENDCHAR
STARTCHAR uni00AB
ENCODING 59051
SWIDTH 360 0
DWIDTH 6 0
BBX 6 9 0 0
BITMAP
44
28
10
00
00
10
10
10
FC
ENDCHAR
STARTCHAR uni00AC
ENCODING 59052
SWIDTH 720 0
DWIDTH 12 0
BBX 11 13 1 -7
BITMAP
01E0
0200
4200
8180
8040
8040
4180
3E00
0000
2800
2800
1000
1000
ENDCHAR
STARTCHAR uni00AD
ENCODING 59053
SWIDTH 660 0
DWIDTH 11 0
BBX 11 11 1 -10
BITMAP
41E0
8200
8180
8040
4180
3E00
0000
2800
2800
1000
1000
ENDCHAR
STARTCHAR uni00AE
ENCODING 59054
SWIDTH 360 0
DWIDTH 6 0
BBX 5 10 0 -5
BITMAP
10
08
08
08
F0
00
50
50
20
20
ENDCHAR
STARTCHAR uni00AF
ENCODING 59055
SWIDTH 360 0
DWIDTH 6 0
BBX 6 9 0 -5
BITMAP
10
10
10
FC
00
28
28
10
10
ENDCHAR
STARTCHAR uni00B0
ENCODING 59056
SWIDTH 360 0
DWIDTH 6 0
BBX 5 5 0 0
BITMAP
10
08
08
08
F0
ENDCHAR
STARTCHAR uni00B1
ENCODING 59057
SWIDTH 360 0
DWIDTH 6 0
BBX 6 4 0 0
BITMAP
10
10
10
FC
ENDCHAR
STARTCHAR uni00B2
ENCODING 59058
SWIDTH 600 0
DWIDTH 10 0
BBX 9 14 1 -4
BITMAP
1180
2A00
1180
2A00
4000
0000
0400
0A00
0A00
0780
0200
0200
8400
7800
ENDCHAR
STARTCHAR uni00B3
ENCODING 59059
SWIDTH 960 0
DWIDTH 16 0
BBX 15 14 1 -5
BITMAP
0010
0010
0028
0028
0000
0000
0112
0112
40EC
8080
8080
8088
4308
3C00
ENDCHAR
STARTCHAR uni00B4
ENCODING 59060
SWIDTH 1020 0
DWIDTH 17 0
BBX 17 14 1 -5
BITMAP
001000
001000
002800
002800
000000
000000
011200
011200
40FF80
808000
808000
808800
430800
3C0000
ENDCHAR
STARTCHAR uni00B5
ENCODING 59061
SWIDTH 720 0
DWIDTH 12 0
BBX 11 13 0 -4
BITMAP
0100
0100
0280
0280
0000
0000
1120
1120
FFE0
0000
0000
0080
0080
ENDCHAR
STARTCHAR uni00B6
ENCODING 59062
SWIDTH 780 0
DWIDTH 13 0
BBX 13 13 0 -4
BITMAP
0100
0100
0280
0280
0000
0000
1120
1120
FFF8
0000
0000
0080
0080
ENDCHAR
STARTCHAR uni00B7
ENCODING 59063
SWIDTH 1080 0
DWIDTH 18 0
BBX 17 12 1 -5
BITMAP
002000
002000
000000
000700
001880
012080
40FF00
80C000
808000
808400
430400
3C0000
ENDCHAR
STARTCHAR uni00B8
ENCODING 59064
SWIDTH 1080 0
DWIDTH 18 0
BBX 18 12 1 -5
BITMAP
002000
002000
000000
000700
001880
012080
40FFC0
80C000
808000
808400
430400
3C0000
ENDCHAR
STARTCHAR uni00B9
ENCODING 59065
SWIDTH 840 0
DWIDTH 14 0
BBX 13 11 0 -4
BITMAP
0200
0200
0000
0070
2188
2208
FFF0
0000
0000
0040
0040
ENDCHAR
STARTCHAR uni00BA
ENCODING 59066
SWIDTH 780 0
DWIDTH 13 0
BBX 13 11 0 -4
BITMAP
0400
0400
0000
00E0
0310
2410
DFF8
0000
0000
0080
0080
ENDCHAR
STARTCHAR uni00BB
ENCODING 59067
SWIDTH 600 0
DWIDTH 10 0
BBX 9 16 1 -7
BITMAP
2000
2000
0000
0000
3800
4000
8000
4C00
3000
4000
4000
8800
8800
8000
4180
3E00
ENDCHAR
STARTCHAR uni00BC
ENCODING 59068
SWIDTH 540 0
DWIDTH 9 0
BBX 9 15 1 -6
BITMAP
1000
1000
0000
0000
3800
6C00
1000
3800
4780
4000
8800
8800
8000
4180
3E00
ENDCHAR
STARTCHAR uni00BD
ENCODING 59069
SWIDTH 420 0
DWIDTH 7 0
BBX 7 13 0 -4
BITMAP
10
10
00
00
1C
20
40
22
FC
00
00
10
10
ENDCHAR
STARTCHAR uni00BE
ENCODING 59070
SWIDTH 480 0
DWIDTH 8 0
BBX 8 13 0 -4
BITMAP
08
08
00
00
1C
36
08
1C
E3
00
00
08
08
ENDCHAR
STARTCHAR uni06C1
ENCODING 59073
SWIDTH 300 0
DWIDTH 5 0
BBX 4 6 1 0
BITMAP
20
30
50
90
90
60
ENDCHAR
STARTCHAR uni06C2
ENCODING 59074
SWIDTH 300 0
DWIDTH 5 0
BBX 4 11 1 0
BITMAP
30
40
30
40
00
20
30
50
90
90
60
ENDCHAR
STARTCHAR uni06C3
ENCODING 59075
SWIDTH 300 0
DWIDTH 5 0
BBX 4 10 1 0
BITMAP
50
50
00
00
20
30
50
90
90
60
ENDCHAR
STARTCHAR uniFB5E
ENCODING 59077
SWIDTH 780 0
DWIDTH 13 0
BBX 13 6 0 -1
BITMAP
0008
4008
8008
8008
C030
7FC0
ENDCHAR
STARTCHAR uniFB5F
ENCODING 59078
SWIDTH 900 0
DWIDTH 15 0
BBX 15 5 1 -1
BITMAP
4000
8010
8010
C07E
7F80
ENDCHAR
STARTCHAR uniFB60
ENCODING 59079
SWIDTH 360 0
DWIDTH 6 0
BBX 5 5 0 0
BITMAP
10
08
08
08
F0
ENDCHAR
STARTCHAR uniFB61
ENCODING 59080
SWIDTH 360 0
DWIDTH 6 0
BBX 6 4 0 0
BITMAP
10
10
10
FC
ENDCHAR
STARTCHAR uniFED5
ENCODING 59081
SWIDTH 600 0
DWIDTH 10 0
BBX 9 10 1 -3
BITMAP
0300
0580
0480
0480
4380
8080
8080
8100
4200
3C00
ENDCHAR
STARTCHAR uniFED6
ENCODING 59082
SWIDTH 720 0
DWIDTH 12 0
BBX 11 10 1 -5
BITMAP
0300
0580
0480
0480
43E0
8080
8080
8100
4200
3C00
ENDCHAR
STARTCHAR uniFED7
ENCODING 59083
SWIDTH 240 0
DWIDTH 4 0
BBX 5 7 0 0
BITMAP
30
58
48
58
28
08
F0
ENDCHAR
STARTCHAR uniFED8
ENCODING 59084
SWIDTH 480 0
DWIDTH 8 0
BBX 8 6 0 0
BITMAP
18
24
24
18
18
E7
ENDCHAR
STARTCHAR uni00D0
ENCODING 59088
SWIDTH 540 0
DWIDTH 9 0
BBX 8 15 1 0
BITMAP
11
0A
04
00
00
C4
E6
24
14
14
08
0C
14
24
38
ENDCHAR
STARTCHAR uni00D1
ENCODING 59089
SWIDTH 660 0
DWIDTH 11 0
BBX 10 16 1 -1
BITMAP
0880
0500
0200
0000
0000
0200
6300
7200
1200
0A00
0A00
0A00
0D00
0900
30C0
E000
ENDCHAR
STARTCHAR uni00D2
ENCODING 59090
SWIDTH 540 0
DWIDTH 9 0
BBX 7 14 1 0
BITMAP
04
04
00
00
C4
E6
24
14
14
08
0C
14
24
38
ENDCHAR
STARTCHAR uni00D3
ENCODING 59091
SWIDTH 660 0
DWIDTH 11 0
BBX 10 15 1 -1
BITMAP
0200
0200
0000
0000
0200
6300
7200
1200
0A00
0A00
0A00
0D00
0900
30C0
E000
ENDCHAR
STARTCHAR uni00D4
ENCODING 59092
SWIDTH 540 0
DWIDTH 9 0
BBX 7 16 1 0
BITMAP
04
04
0A
0A
00
00
C4
E6
24
14
14
08
0C
14
24
38
ENDCHAR
STARTCHAR uni00D5
ENCODING 59093
SWIDTH 660 0
DWIDTH 11 0
BBX 10 17 1 -1
BITMAP
0200
0200
0500
0500
0000
0000
0200
6300
7200
1200
0A00
0A00
0A00
0D00
0900
30C0
E000
ENDCHAR
STARTCHAR uni00F0
ENCODING 59120
SWIDTH 1260 0
DWIDTH 21 0
BBX 19 14 1 -4
BITMAP
028000
028000
02C000
028000
028000
028000
028840
028460
828420
828420
827820
440040
3858C0
005780
ENDCHAR
STARTCHAR uni06F4
ENCODING 59124
SWIDTH 540 0
DWIDTH 9 0
BBX 7 10 1 0
BITMAP
72
FE
CC
48
60
60
20
20
20
20
ENDCHAR
STARTCHAR uni06F7
ENCODING 59127
SWIDTH 600 0
DWIDTH 10 0
BBX 8 8 1 1
BITMAP
03
0E
38
60
E0
78
1E
07
ENDCHAR
STARTCHAR uniFBA8
ENCODING 60328
SWIDTH 420 0
DWIDTH 7 0
BBX 7 10 0 -4
BITMAP
10
10
10
10
10
FE
00
10
20
30
ENDCHAR
STARTCHAR uniFEEC
ENCODING 61164
SWIDTH 360 0
DWIDTH 6 0
BBX 6 8 0 -6
BITMAP
40
CC
30
20
20
24
28
0C
ENDCHAR
STARTCHAR uniFB50
ENCODING 64336
SWIDTH 300 0
DWIDTH 5 0
BBX 5 15 0 0
BITMAP
10
28
78
80
00
20
30
20
20
20
20
20
20
20
20
ENDCHAR
STARTCHAR uniFB51
ENCODING 64337
SWIDTH 300 0
DWIDTH 5 0
BBX 5 15 0 0
BITMAP
10
28
78
80
00
20
30
20
20
20
20
20
20
20
18
ENDCHAR
STARTCHAR uniFB52
ENCODING 64338
SWIDTH 840 0
DWIDTH 14 0
BBX 13 12 1 -7
BITMAP
0008
4008
8008
8008
C030
7FC0
0000
0200
0200
0000
0200
0200
ENDCHAR
STARTCHAR uniFB53
ENCODING 64339
SWIDTH 960 0
DWIDTH 16 0
BBX 15 11 1 -7
BITMAP
4000
8010
8010
C07E
7F80
0000
0400
0400
0000
0400
0400
ENDCHAR
STARTCHAR uniFB54
ENCODING 64340
SWIDTH 360 0
DWIDTH 6 0
BBX 5 11 0 -6
BITMAP
10
08
08
08
F0
00
40
40
00
40
40
ENDCHAR
STARTCHAR uniFB55
ENCODING 64341
SWIDTH 360 0
DWIDTH 6 0
BBX 6 10 0 -6
BITMAP
10
10
10
FC
00
10
10
00
10
10
ENDCHAR
STARTCHAR uniFB56
ENCODING 64342
SWIDTH 840 0
DWIDTH 14 0
BBX 13 11 1 -6
BITMAP
0008
4008
8008
8008
C030
7FC0
0000
0A00
0A00
0400
0400
ENDCHAR
STARTCHAR uniFB57
ENCODING 64343
SWIDTH 900 0
DWIDTH 15 0
BBX 15 10 1 -6
BITMAP
4000
8010
8010
C07E
7F80
0000
0A00
0A00
0400
0400
ENDCHAR
STARTCHAR uniFB58
ENCODING 64344
SWIDTH 360 0
DWIDTH 6 0
BBX 5 10 0 -5
BITMAP
10
08
08
08
F0
00
50
50
20
20
ENDCHAR
STARTCHAR uniFB59
ENCODING 64345
SWIDTH 360 0
DWIDTH 6 0
BBX 6 9 0 -5
BITMAP
10
10
10
FC
00
28
28
10
10
ENDCHAR
STARTCHAR uniFB5A
ENCODING 64346
SWIDTH 840 0
DWIDTH 14 0
BBX 13 12 1 -7
BITMAP
0008
4008
8008
8008
C030
7FC0
0000
0500
0500
0000
0500
0500
ENDCHAR
STARTCHAR uniFB5B
ENCODING 64347
SWIDTH 960 0
DWIDTH 16 0
BBX 15 11 1 -7
BITMAP
4000
8010
8010
C07E
7F80
0000
0500
0500
0000
0500
0500
ENDCHAR
STARTCHAR uniFB5C
ENCODING 64348
SWIDTH 360 0
DWIDTH 6 0
BBX 5 11 0 -6
BITMAP
10
08
08
08
F0
00
50
50
00
50
50
ENDCHAR
STARTCHAR uniFB5D
ENCODING 64349
SWIDTH 360 0
DWIDTH 6 0
BBX 6 10 0 -6
BITMAP
10
10
10
FC
00
28
28
00
28
28
ENDCHAR
STARTCHAR uniFB5E
ENCODING 64350
SWIDTH 780 0
DWIDTH 13 0
BBX 13 11 0 -1
BITMAP
0200
0200
0000
0200
0200
0008
4008
8008
8008
C030
7FC0
ENDCHAR
STARTCHAR uniFB5F
ENCODING 64351
SWIDTH 900 0
DWIDTH 15 0
BBX 15 11 1 -1
BITMAP
0100
0100
0000
0100
0100
0000
4000
8010
8010
C07E
7F80
ENDCHAR
STARTCHAR uniFB60
ENCODING 64352
SWIDTH 360 0
DWIDTH 6 0
BBX 5 11 0 0
BITMAP
20
20
00
20
20
00
10
08
08
08
F0
ENDCHAR
STARTCHAR uniFB61
ENCODING 64353
SWIDTH 360 0
DWIDTH 6 0
BBX 6 11 0 0
BITMAP
10
10
00
10
10
00
00
10
10
10
FC
ENDCHAR
STARTCHAR uniFB62
ENCODING 64354
SWIDTH 840 0
DWIDTH 14 0
BBX 13 11 1 -1
BITMAP
0500
0500
0000
0500
0500
0008
4008
8008
8008
C030
7FC0
ENDCHAR
STARTCHAR uniFB63
ENCODING 64355
SWIDTH 900 0
DWIDTH 15 0
BBX 15 11 1 -1
BITMAP
0500
0500
0000
0500
0500
0000
4000
8010
8010
C07E
7F80
ENDCHAR
STARTCHAR uniFB64
ENCODING 64356
SWIDTH 360 0
DWIDTH 6 0
BBX 5 11 0 0
BITMAP
28
28
00
28
28
00
10
08
08
08
F0
ENDCHAR
STARTCHAR uniFB65
ENCODING 64357
SWIDTH 360 0
DWIDTH 6 0
BBX 6 11 0 0
BITMAP
28
28
00
28
28
00
00
10
10
10
FC
ENDCHAR
STARTCHAR uniFB66
ENCODING 64358
SWIDTH 840 0
DWIDTH 14 0
BBX 13 9 1 -1
BITMAP
0400
0400
0700
0708
4008
8008
8008
C030
7FC0
ENDCHAR
STARTCHAR uniFB67
ENCODING 64359
SWIDTH 900 0
DWIDTH 15 0
BBX 15 9 1 -1
BITMAP
0400
0400
0700
0700
4000
8010
8010
C07E
7F80
ENDCHAR
STARTCHAR uniFB68
ENCODING 64360
SWIDTH 360 0
DWIDTH 6 0
BBX 5 11 0 0
BITMAP
20
20
38
38
00
00
10
08
08
08
F0
ENDCHAR
STARTCHAR uniFB69
ENCODING 64361
SWIDTH 360 0
DWIDTH 6 0
BBX 6 11 0 0
BITMAP
20
20
38
38
00
00
00
10
10
10
FC
ENDCHAR
STARTCHAR uniFB6A
ENCODING 64362
SWIDTH 900 0
DWIDTH 15 0
BBX 14 14 1 0
BITMAP
0010
0010
0028
0028
0000
0000
0018
002C
0024
802C
8014
8004
4038
3FC0
ENDCHAR
STARTCHAR uniFB6B
ENCODING 64363
SWIDTH 960 0
DWIDTH 16 0
BBX 16 14 1 -1
BITMAP
0010
0010
0028
0028
0000
0000
0018
002C
0024
802C
8014
8004
403B
3FC0
ENDCHAR
STARTCHAR uniFB6C
ENCODING 64364
SWIDTH 360 0
DWIDTH 6 0
BBX 5 13 0 0
BITMAP
20
20
50
50
00
00
30
58
48
58
28
08
F0
ENDCHAR
STARTCHAR uniFB6D
ENCODING 64365
SWIDTH 480 0
DWIDTH 8 0
BBX 8 12 0 0
BITMAP
10
10
28
28
00
00
18
24
24
18
18
E7
ENDCHAR
STARTCHAR uniFB6E
ENCODING 64366
SWIDTH 900 0
DWIDTH 15 0
BBX 14 15 1 0
BITMAP
0028
0028
0000
0028
0028
0000
0000
0018
002C
0024
802C
8014
8004
4038
3FC0
ENDCHAR
STARTCHAR uniFB6F
ENCODING 64367
SWIDTH 960 0
DWIDTH 16 0
BBX 16 15 1 -1
BITMAP
0028
0028
0000
0028
0028
0000
0000
0018
002C
0024
802C
8014
8004
403B
3FC0
ENDCHAR
STARTCHAR uniFB70
ENCODING 64368
SWIDTH 360 0
DWIDTH 6 0
BBX 5 14 0 0
BITMAP
50
50
00
50
50
00
00
30
58
48
58
28
08
F0
ENDCHAR
STARTCHAR uniFB71
ENCODING 64369
SWIDTH 480 0
DWIDTH 8 0
BBX 8 14 0 0
BITMAP
28
28
00
00
28
28
00
00
18
24
24
18
18
E7
ENDCHAR
STARTCHAR uniFB72
ENCODING 64370
SWIDTH 660 0
DWIDTH 11 0
BBX 10 11 1 -6
BITMAP
7000
8F00
3800
4000
4800
8800
8000
8800
4800
60C0
1F00
ENDCHAR
STARTCHAR uniFB73
ENCODING 64371
SWIDTH 600 0
DWIDTH 10 0
BBX 10 11 1 -6
BITMAP
7000
8F00
3A00
4200
49C0
8800
8000
8800
4800
60C0
1F00
ENDCHAR
STARTCHAR uniFB80
ENCODING 64372
SWIDTH 600 0
DWIDTH 10 0
BBX 9 10 0 -6
BITMAP
3800
4600
0100
FF80
0000
0800
0800
0000
0800
0800
ENDCHAR
STARTCHAR uni0016
ENCODING 64373
SWIDTH 1200 0
DWIDTH 20 0
BBX 10 10 0 -6
BITMAP
3800
4600
0100
FFC0
0000
0800
0800
0000
0800
0800
ENDCHAR
STARTCHAR uniFB76
ENCODING 64374
SWIDTH 660 0
DWIDTH 11 0
BBX 10 11 1 -6
BITMAP
7000
8F00
3800
4000
4000
8A00
8A00
8000
4000
60C0
1F00
ENDCHAR
STARTCHAR uniFB77
ENCODING 64375
SWIDTH 600 0
DWIDTH 10 0
BBX 10 11 1 -6
BITMAP
7000
8F00
3A00
4200
41C0
8A00
8A00
8000
4000
60C0
1F00
ENDCHAR
STARTCHAR uniFB80
ENCODING 64376
SWIDTH 600 0
DWIDTH 10 0
BBX 9 7 0 -3
BITMAP
3800
4600
0100
FF80
0000
1400
1400
ENDCHAR
STARTCHAR uni0016
ENCODING 64377
SWIDTH 1200 0
DWIDTH 20 0
BBX 10 7 0 -3
BITMAP
3800
4600
0100
FFC0
0000
1400
1400
ENDCHAR
STARTCHAR uniFB7A
ENCODING 64378
SWIDTH 660 0
DWIDTH 11 0
BBX 10 11 1 -6
BITMAP
7000
8F00
3800
4000
4000
9400
9400
8800
4800
60C0
1F00
ENDCHAR
STARTCHAR uniFB7B
ENCODING 64379
SWIDTH 600 0
DWIDTH 10 0
BBX 10 11 1 -6
BITMAP
7000
8F00
3A00
4200
41C0
9400
9400
8800
4800
60C0
1F00
ENDCHAR
STARTCHAR uniFB80
ENCODING 64380
SWIDTH 600 0
DWIDTH 10 0
BBX 9 9 0 -5
BITMAP
3800
4600
0100
FF80
0000
1400
1400
0800
0800
ENDCHAR
STARTCHAR uni0016
ENCODING 64381
SWIDTH 1200 0
DWIDTH 20 0
BBX 10 9 0 -5
BITMAP
3800
4600
0100
FFC0
0000
1400
1400
0800
0800
ENDCHAR
STARTCHAR uniFB7E
ENCODING 64382
SWIDTH 660 0
DWIDTH 11 0
BBX 10 11 1 -6
BITMAP
7000
8F00
3800
4000
4A00
8A00
8000
8A00
4A00
60C0
1F00
ENDCHAR
STARTCHAR uniFB7F
ENCODING 64383
SWIDTH 600 0
DWIDTH 10 0
BBX 10 11 1 -6
BITMAP
7000
8F00
3A00
4200
55C0
9400
8000
9400
5400
60C0
1F00
ENDCHAR
STARTCHAR uniFB80
ENCODING 64384
SWIDTH 600 0
DWIDTH 10 0
BBX 9 10 0 -6
BITMAP
3800
4600
0100
FF80
0000
1400
1400
0000
1400
1400
ENDCHAR
STARTCHAR uni0016
ENCODING 64385
SWIDTH 1200 0
DWIDTH 20 0
BBX 10 10 0 -6
BITMAP
3800
4600
0100
FFC0
0000
1400
1400
0000
1400
1400
ENDCHAR
STARTCHAR uniFB82
ENCODING 64386
SWIDTH 360 0
DWIDTH 6 0
BBX 5 9 1 -3
BITMAP
10
10
08
08
98
60
00
50
50
ENDCHAR
STARTCHAR uniFB83
ENCODING 64387
SWIDTH 420 0
DWIDTH 7 0
BBX 7 10 1 -3
BITMAP
10
10
08
08
08
98
66
00
50
50
ENDCHAR
STARTCHAR uniFB84
ENCODING 64388
SWIDTH 360 0
DWIDTH 6 0
BBX 5 10 1 0
BITMAP
50
50
00
00
10
10
08
08
98
60
ENDCHAR
STARTCHAR uniFB85
ENCODING 64389
SWIDTH 420 0
DWIDTH 7 0
BBX 7 11 1 0
BITMAP
50
50
00
00
10
10
08
08
08
98
66
ENDCHAR
STARTCHAR uniFB86
ENCODING 64390
SWIDTH 360 0
DWIDTH 6 0
BBX 5 12 1 0
BITMAP
20
20
50
50
00
00
10
10
08
08
98
60
ENDCHAR
STARTCHAR uniFB87
ENCODING 64391
SWIDTH 420 0
DWIDTH 7 0
BBX 7 13 1 0
BITMAP
20
20
50
50
00
00
10
10
08
08
08
98
66
ENDCHAR
STARTCHAR uniFB88
ENCODING 64392
SWIDTH 360 0
DWIDTH 6 0
BBX 5 12 1 0
BITMAP
80
80
E0
E0
00
00
10
10
08
08
98
60
ENDCHAR
STARTCHAR uniFB89
ENCODING 64393
SWIDTH 420 0
DWIDTH 7 0
BBX 7 13 1 0
BITMAP
20
20
38
38
00
00
10
10
08
08
08
98
66
ENDCHAR
STARTCHAR uniFB8A
ENCODING 64394
SWIDTH 420 0
DWIDTH 7 0
BBX 6 14 1 -4
BITMAP
08
08
14
14
00
00
08
08
04
04
04
0C
18
F0
ENDCHAR
STARTCHAR uniFB8B
ENCODING 64395
SWIDTH 540 0
DWIDTH 9 0
BBX 8 14 1 -5
BITMAP
08
08
14
14
00
00
08
0C
07
04
04
0C
18
F0
ENDCHAR
STARTCHAR uniFB8C
ENCODING 64396
SWIDTH 420 0
DWIDTH 7 0
BBX 6 14 1 -4
BITMAP
20
20
38
38
00
00
08
08
04
04
04
0C
18
F0
ENDCHAR
STARTCHAR uniFB8D
ENCODING 64397
SWIDTH 540 0
DWIDTH 9 0
BBX 8 14 1 -5
BITMAP
20
20
38
38
00
00
08
0C
07
04
04
0C
18
F0
ENDCHAR
STARTCHAR uniFB8E
ENCODING 64398
SWIDTH 840 0
DWIDTH 14 0
BBX 13 11 1 -1
BITMAP
0008
0030
00C0
0100
0100
0080
4060
8010
8010
8060
7F80
ENDCHAR
STARTCHAR uniFB8F
ENCODING 64399
SWIDTH 900 0
DWIDTH 15 0
BBX 15 10 1 0
BITMAP
0008
0030
00C0
0100
0100
4080
8060
8010
8010
7FFE
ENDCHAR
STARTCHAR uniFEDB
ENCODING 64400
SWIDTH 480 0
DWIDTH 8 0
BBX 8 10 0 0
BITMAP
01
06
18
20
20
10
0C
02
02
FC
ENDCHAR
STARTCHAR uniFEDC
ENCODING 64401
SWIDTH 660 0
DWIDTH 11 0
BBX 11 10 0 0
BITMAP
0080
0300
0C00
1000
1000
0800
0600
0100
0100
FFE0
ENDCHAR
STARTCHAR uniFB92
ENCODING 64402
SWIDTH 840 0
DWIDTH 14 0
BBX 13 14 1 -1
BITMAP
0008
0030
00C0
0108
0030
00C0
0100
0100
0080
4060
8010
8010
8060
7F80
ENDCHAR
STARTCHAR uniFB93
ENCODING 64403
SWIDTH 960 0
DWIDTH 16 0
BBX 15 13 1 0
BITMAP
0008
0030
00C0
0108
0030
00C0
0100
0100
4080
8060
8010
8010
7FFE
ENDCHAR
STARTCHAR uniFB94
ENCODING 64404
SWIDTH 480 0
DWIDTH 8 0
BBX 8 13 0 0
BITMAP
01
06
18
21
06
18
20
20
10
0C
02
02
FC
ENDCHAR
STARTCHAR uniFB95
ENCODING 64405
SWIDTH 660 0
DWIDTH 11 0
BBX 11 13 0 0
BITMAP
0080
0300
0C00
1080
0300
0C00
1000
1000
0800
0600
0100
0100
FFE0
ENDCHAR
STARTCHAR uniFB96
ENCODING 64406
SWIDTH 840 0
DWIDTH 14 0
BBX 13 20 1 -7
BITMAP
0008
0030
00C0
0108
0030
00C0
0100
0100
0080
4060
8010
8010
8060
7F80
0000
0400
0400
0000
0400
0400
ENDCHAR
STARTCHAR uniFB97
ENCODING 64407
SWIDTH 960 0
DWIDTH 16 0
BBX 15 20 1 -7
BITMAP
0008
0030
00C0
0108
0030
00C0
0100
0100
4080
8060
8010
8010
7FFE
0000
0000
0080
0080
0000
0080
0080
ENDCHAR
STARTCHAR uniFB98
ENCODING 64408
SWIDTH 480 0
DWIDTH 8 0
BBX 8 19 0 -6
BITMAP
01
06
18
21
06
18
20
20
10
0C
02
02
FC
00
10
10
00
10
10
ENDCHAR
STARTCHAR uniFB99
ENCODING 64409
SWIDTH 660 0
DWIDTH 11 0
BBX 11 19 0 -6
BITMAP
0080
0300
0C00
1080
0300
0C00
1000
1000
0800
0600
0100
0100
FFE0
0000
0800
0800
0000
0800
0800
ENDCHAR
STARTCHAR uniFB9A
ENCODING 64410
SWIDTH 840 0
DWIDTH 14 0
BBX 13 16 1 -1
BITMAP
0020
00A0
0088
0030
00C0
0108
0030
00C0
0100
0100
0080
4060
8010
8010
8060
7F80
ENDCHAR
STARTCHAR uniFB9B
ENCODING 64411
SWIDTH 960 0
DWIDTH 16 0
BBX 15 15 1 0
BITMAP
0020
00A0
0088
0030
00C0
0108
0030
00C0
0100
0100
4080
8060
8010
8010
7FFE
ENDCHAR
STARTCHAR uniFB9C
ENCODING 64412
SWIDTH 480 0
DWIDTH 8 0
BBX 8 15 0 0
BITMAP
04
14
11
06
18
21
06
18
20
20
10
0C
02
02
FC
ENDCHAR
STARTCHAR uniFB9D
ENCODING 64413
SWIDTH 660 0
DWIDTH 11 0
BBX 11 15 0 0
BITMAP
0200
0A00
0880
0300
0C00
1080
0300
0C00
1000
1000
0800
0600
0100
0100
FFE0
ENDCHAR
STARTCHAR uniFB9E
ENCODING 64414
SWIDTH 600 0
DWIDTH 10 0
BBX 8 7 1 -2
BITMAP
02
02
41
81
81
82
7C
ENDCHAR
STARTCHAR uniFB9F
ENCODING 64415
SWIDTH 540 0
DWIDTH 9 0
BBX 9 7 1 -4
BITMAP
0200
0200
4180
8100
8100
8200
7C00
ENDCHAR
STARTCHAR uniFBA0
ENCODING 64416
SWIDTH 600 0
DWIDTH 10 0
BBX 8 13 1 -2
BITMAP
20
20
38
38
00
00
02
02
41
81
81
82
7C
ENDCHAR
STARTCHAR uniFBA1
ENCODING 64417
SWIDTH 540 0
DWIDTH 9 0
BBX 9 14 1 -4
BITMAP
2000
2000
3800
3800
0000
0000
0000
0200
0200
4180
8100
8100
8200
7C00
ENDCHAR
STARTCHAR uniFBA2
ENCODING 64418
SWIDTH 300 0
DWIDTH 5 0
BBX 5 11 0 0
BITMAP
20
20
38
38
00
00
10
08
08
08
F0
ENDCHAR
STARTCHAR uniFBA3
ENCODING 64419
SWIDTH 360 0
DWIDTH 6 0
BBX 6 11 0 0
BITMAP
20
20
38
38
00
00
00
10
10
10
FC
ENDCHAR
STARTCHAR uniFBA4
ENCODING 64420
SWIDTH 420 0
DWIDTH 7 0
BBX 5 12 1 0
BITMAP
30
40
30
40
00
00
20
30
50
88
88
70
ENDCHAR
STARTCHAR uniFBA5
ENCODING 64421
SWIDTH 420 0
DWIDTH 7 0
BBX 6 12 1 0
BITMAP
30
40
30
40
00
10
30
50
90
90
70
0C
ENDCHAR
STARTCHAR uniFBA6
ENCODING 64422
SWIDTH 420 0
DWIDTH 7 0
BBX 5 6 1 0
BITMAP
20
30
50
88
88
70
ENDCHAR
STARTCHAR uniFBA7
ENCODING 64423
SWIDTH 540 0
DWIDTH 9 0
BBX 8 4 1 0
BITMAP
18
3C
46
83
ENDCHAR
STARTCHAR uniFBA8
ENCODING 64424
SWIDTH 180 0
DWIDTH 3 0
BBX 3 10 0 -4
BITMAP
20
20
20
20
20
C0
00
20
40
60
ENDCHAR
STARTCHAR uniFBA9
ENCODING 64425
SWIDTH 360 0
DWIDTH 6 0
BBX 6 7 0 -5
BITMAP
40
CC
30
20
20
20
20
ENDCHAR
STARTCHAR uniFBAA
ENCODING 64426
SWIDTH 600 0
DWIDTH 10 0
BBX 8 6 1 -1
BITMAP
38
4E
49
59
26
C0
ENDCHAR
STARTCHAR uniFBAB
ENCODING 64427
SWIDTH 660 0
DWIDTH 11 0
BBX 10 6 1 -1
BITMAP
3800
4E00
4900
5900
27C0
C000
ENDCHAR
STARTCHAR uniFBAC
ENCODING 64428
SWIDTH 600 0
DWIDTH 10 0
BBX 9 5 0 0
BITMAP
1C00
2700
2480
2C80
D300
ENDCHAR
STARTCHAR uniFBAD
ENCODING 64429
SWIDTH 600 0
DWIDTH 10 0
BBX 10 5 0 0
BITMAP
1C00
2700
2480
2C80
D3C0
ENDCHAR
STARTCHAR uniFBAE
ENCODING 64430
SWIDTH 900 0
DWIDTH 15 0
BBX 13 8 1 -4
BITMAP
0200
0500
0500
1800
6000
8000
8000
7FF8
ENDCHAR
STARTCHAR uniFBAF
ENCODING 64431
SWIDTH 600 0
DWIDTH 10 0
BBX 11 8 1 -7
BITMAP
0300
0400
0400
1800
6000
8000
8000
7FE0
ENDCHAR
STARTCHAR uniFBB0
ENCODING 64432
SWIDTH 900 0
DWIDTH 15 0
BBX 13 11 1 -4
BITMAP
3000
4000
3000
4200
0500
0500
1800
6000
8000
8000
7FF8
ENDCHAR
STARTCHAR uniFBB1
ENCODING 64433
SWIDTH 600 0
DWIDTH 10 0
BBX 11 11 1 -7
BITMAP
3000
4000
3000
4300
0400
0400
1800
6000
8000
8000
7FE0
ENDCHAR
STARTCHAR uni0075
ENCODING 64467
SWIDTH 660 0
DWIDTH 11 0
BBX 10 15 1 0
BITMAP
0400
0400
0A00
0A00
0000
0080
00C0
0080
0480
0C80
0480
8C80
8080
C080
7F00
ENDCHAR
STARTCHAR uniFBD4
ENCODING 64468
SWIDTH 660 0
DWIDTH 11 0
BBX 11 15 1 0
BITMAP
0800
0800
1400
1400
0000
0080
00C0
0080
0480
0C80
0480
8C80
8080
C080
7FE0
ENDCHAR
STARTCHAR uniFBD5
ENCODING 64469
SWIDTH 660 0
DWIDTH 11 0
BBX 10 15 0 0
BITMAP
0800
0800
0200
0A00
08C0
0300
0C00
3000
4000
4000
3000
0C00
0200
0100
FE00
ENDCHAR
STARTCHAR uniFBD6
ENCODING 64470
SWIDTH 660 0
DWIDTH 11 0
BBX 11 15 0 0
BITMAP
0800
0800
0200
0A00
08C0
0300
0C00
3000
4000
4000
2000
1800
0400
0200
FFE0
ENDCHAR
STARTCHAR uniFBD7
ENCODING 64471
SWIDTH 540 0
DWIDTH 9 0
BBX 7 14 0 -3
BITMAP
04
0A
04
0A
10
00
04
0A
0A
0E
02
02
84
78
ENDCHAR
STARTCHAR uniFBD8
ENCODING 64472
SWIDTH 600 0
DWIDTH 10 0
BBX 9 14 1 -4
BITMAP
0400
0A00
0400
0A00
1000
0000
0400
0A00
0A00
0780
0200
0200
8400
7800
ENDCHAR
STARTCHAR uniFBD9
ENCODING 64473
SWIDTH 480 0
DWIDTH 8 0
BBX 8 13 0 -3
BITMAP
11
0A
04
00
00
04
0A
0A
0E
02
02
84
78
ENDCHAR
STARTCHAR uniFBDA
ENCODING 64474
SWIDTH 600 0
DWIDTH 10 0
BBX 9 13 1 -4
BITMAP
1100
0A00
0400
0000
0000
0400
0A00
0A00
0780
0200
0200
8400
7800
ENDCHAR
STARTCHAR uniFBDB
ENCODING 64475
SWIDTH 540 0
DWIDTH 9 0
BBX 7 14 0 -3
BITMAP
04
04
04
04
00
00
04
0A
0A
0E
02
02
84
78
ENDCHAR
STARTCHAR uniFBDC
ENCODING 64476
SWIDTH 600 0
DWIDTH 10 0
BBX 9 14 1 -4
BITMAP
0400
0400
0400
0400
0000
0000
0400
0A00
0A00
0780
0200
0200
8400
7800
ENDCHAR
STARTCHAR uniFBDD
ENCODING 64477
SWIDTH 540 0
DWIDTH 9 0
BBX 9 14 0 -3
BITMAP
1180
2A00
1180
2A00
4000
0000
0400
0A00
0A00
0E00
0200
0200
8400
7800
ENDCHAR
STARTCHAR uniFBDE
ENCODING 64478
SWIDTH 540 0
DWIDTH 9 0
BBX 7 14 0 -3
BITMAP
04
04
0A
0A
00
00
04
0A
0A
0E
02
02
84
78
ENDCHAR
STARTCHAR uniFBDF
ENCODING 64479
SWIDTH 600 0
DWIDTH 10 0
BBX 9 14 1 -4
BITMAP
0400
0400
0A00
0A00
0000
0000
0400
0A00
0A00
0780
0200
0200
8400
7800
ENDCHAR
STARTCHAR uniFBE0
ENCODING 64480
SWIDTH 540 0
DWIDTH 9 0
BBX 7 8 0 -3
BITMAP
04
0A
0A
0E
02
3E
84
78
ENDCHAR
STARTCHAR uniFBE1
ENCODING 64481
SWIDTH 600 0
DWIDTH 10 0
BBX 9 8 1 -4
BITMAP
0400
0A00
0A00
0780
0200
3E00
8400
7800
ENDCHAR
STARTCHAR uniFBE2
ENCODING 64482
SWIDTH 480 0
DWIDTH 8 0
BBX 8 13 0 -3
BITMAP
04
0A
11
00
00
04
0A
0A
0E
02
02
84
78
ENDCHAR
STARTCHAR uniFBE3
ENCODING 64483
SWIDTH 600 0
DWIDTH 10 0
BBX 9 13 1 -4
BITMAP
0400
0A00
1100
0000
0000
0400
0A00
0A00
0780
0200
0200
8400
7800
ENDCHAR
STARTCHAR uniFBE4
ENCODING 64484
SWIDTH 720 0
DWIDTH 12 0
BBX 11 14 1 -8
BITMAP
01E0
0200
4200
8180
8040
8040
4180
3E00
0000
0800
0800
0000
0800
0800
ENDCHAR
STARTCHAR uniFBE5
ENCODING 64485
SWIDTH 660 0
DWIDTH 11 0
BBX 11 10 1 -9
BITMAP
41E0
8200
8180
8040
4180
3E00
0000
0C00
0000
0C00
ENDCHAR
STARTCHAR uniFBE6
ENCODING 64486
SWIDTH 360 0
DWIDTH 6 0
BBX 5 11 0 -6
BITMAP
10
08
08
08
F0
00
10
10
00
10
10
ENDCHAR
STARTCHAR uniFBE7
ENCODING 64487
SWIDTH 360 0
DWIDTH 6 0
BBX 6 10 0 -6
BITMAP
10
10
10
FC
00
10
10
00
10
10
ENDCHAR
STARTCHAR uniFBE8
ENCODING 64488
SWIDTH 360 0
DWIDTH 6 0
BBX 5 5 0 0
BITMAP
10
08
08
08
F0
ENDCHAR
STARTCHAR uniFBE9
ENCODING 64489
SWIDTH 360 0
DWIDTH 6 0
BBX 6 4 0 0
BITMAP
10
10
10
FC
ENDCHAR
STARTCHAR uniFBFC
ENCODING 64508
SWIDTH 720 0
DWIDTH 12 0
BBX 11 8 1 -2
BITMAP
01E0
0200
4200
8180
8040
8040
4180
3E00
ENDCHAR
STARTCHAR uniFBFD
ENCODING 64509
SWIDTH 660 0
DWIDTH 11 0
BBX 11 6 1 -5
BITMAP
41E0
8200
8180
8040
4180
3E00
ENDCHAR
STARTCHAR uniFBFE
ENCODING 64510
SWIDTH 360 0
DWIDTH 6 0
BBX 5 8 0 -3
BITMAP
10
08
08
08
F0
00
50
50
ENDCHAR
STARTCHAR uniFBFF
ENCODING 64511
SWIDTH 360 0
DWIDTH 6 0
BBX 6 7 0 -3
BITMAP
10
10
10
FC
00
28
28
ENDCHAR
STARTCHAR 0xFE70
ENCODING 65136
SWIDTH 360 0
DWIDTH 6 0
BBX 4 4 1 10
BITMAP
30
C0
30
C0
ENDCHAR
STARTCHAR 0xFE71
ENCODING 65137
SWIDTH 660 0
DWIDTH 11 0
BBX 9 10 0 4
BITMAP
0C00
3000
0C00
3000
0000
0000
0000
0000
0000
FF80
ENDCHAR
STARTCHAR 0x064C
ENCODING 65138
SWIDTH 360 0
DWIDTH 6 0
BBX 5 4 1 11
BITMAP
18
58
D0
60
ENDCHAR
STARTCHAR 0xFE74
ENCODING 65140
SWIDTH 360 0
DWIDTH 6 0
BBX 4 4 1 -6
BITMAP
30
C0
30
C0
ENDCHAR
STARTCHAR 0xFE76
ENCODING 65142
SWIDTH 360 0
DWIDTH 6 0
BBX 4 2 1 10
BITMAP
30
C0
ENDCHAR
STARTCHAR 0xFE77
ENCODING 65143
SWIDTH 660 0
DWIDTH 11 0
BBX 9 8 0 4
BITMAP
0C00
3000
0000
0000
0000
0000
0000
FF80
ENDCHAR
STARTCHAR 0xFE78
ENCODING 65144
SWIDTH 300 0
DWIDTH 5 0
BBX 4 5 1 11
BITMAP
20
50
20
50
80
ENDCHAR
STARTCHAR 0xFE79
ENCODING 65145
SWIDTH 540 0
DWIDTH 9 0
BBX 9 12 0 4
BITMAP
0800
1400
0800
1400
2000
0000
0000
0000
0000
0000
0000
FF80
ENDCHAR
STARTCHAR 0xFE7A
ENCODING 65146
SWIDTH 360 0
DWIDTH 6 0
BBX 4 3 1 -4
BITMAP
10
60
80
ENDCHAR
STARTCHAR 0xFE7B
ENCODING 65147
SWIDTH 660 0
DWIDTH 11 0
BBX 9 9 0 -4
BITMAP
FF80
0000
0000
0000
0000
0000
0800
3000
4000
ENDCHAR
STARTCHAR 0x0651
ENCODING 65148
SWIDTH 0 0
DWIDTH 0 0
BBX 5 3 1 12
BITMAP
08
A8
D0
ENDCHAR
STARTCHAR 0xFE7D
ENCODING 65149
SWIDTH 660 0
DWIDTH 11 0
BBX 9 11 0 4
BITMAP
0200
2A00
3400
0000
0000
0000
0000
0000
0000
0000
FF80
ENDCHAR
STARTCHAR 0xFE7E
ENCODING 65150
SWIDTH 240 0
DWIDTH 4 0
BBX 3 4 1 10
BITMAP
40
A0
A0
C0
ENDCHAR
STARTCHAR 0xFE7F
ENCODING 65151
SWIDTH 540 0
DWIDTH 9 0
BBX 9 10 0 4
BITMAP
1000
2800
2800
3000
0000
0000
0000
0000
0000
FF80
ENDCHAR
STARTCHAR uniFE80
ENCODING 65152
SWIDTH 300 0
DWIDTH 5 0
BBX 4 6 1 0
BITMAP
70
80
80
70
C0
80
ENDCHAR
STARTCHAR uniFE81
ENCODING 65153
SWIDTH 300 0
DWIDTH 5 0
BBX 6 14 0 0
BITMAP
04
78
80
00
20
30
20
20
20
20
20
20
20
20
ENDCHAR
STARTCHAR uniFE82
ENCODING 65154
SWIDTH 360 0
DWIDTH 6 0
BBX 6 14 0 0
BITMAP
04
78
80
00
20
30
20
20
20
20
20
20
20
18
ENDCHAR
STARTCHAR uniFE83
ENCODING 65155
SWIDTH 240 0
DWIDTH 4 0
BBX 3 16 1 0
BITMAP
60
80
60
80
00
00
40
60
40
40
40
40
40
40
40
40
ENDCHAR
STARTCHAR uniFE84
ENCODING 65156
SWIDTH 300 0
DWIDTH 5 0
BBX 4 16 1 0
BITMAP
60
80
60
80
00
00
40
60
40
40
40
40
40
40
40
30
ENDCHAR
STARTCHAR uniFE85
ENCODING 65157
SWIDTH 540 0
DWIDTH 9 0
BBX 7 14 0 -3
BITMAP
06
08
06
08
00
00
04
0A
0A
0E
02
02
84
78
ENDCHAR
STARTCHAR uniFE86
ENCODING 65158
SWIDTH 600 0
DWIDTH 10 0
BBX 9 14 1 -4
BITMAP
0600
0800
0600
0800
0000
0000
0400
0A00
0A00
0780
0200
0200
8400
7800
ENDCHAR
STARTCHAR uniFE87
ENCODING 65159
SWIDTH 300 0
DWIDTH 5 0
BBX 3 16 1 -6
BITMAP
40
60
40
40
40
40
40
40
40
40
00
00
60
80
60
80
ENDCHAR
STARTCHAR uniFE88
ENCODING 65160
SWIDTH 300 0
DWIDTH 5 0
BBX 4 16 1 -6
BITMAP
40
60
40
40
40
40
40
40
40
30
00
00
60
80
60
80
ENDCHAR
STARTCHAR uniFE89
ENCODING 65161
SWIDTH 660 0
DWIDTH 11 0
BBX 11 13 0 -2
BITMAP
1800
2000
1800
2000
0000
01E0
0200
4200
8180
8040
8040
4180
3E00
ENDCHAR
STARTCHAR uniFE8A
ENCODING 65162
SWIDTH 720 0
DWIDTH 12 0
BBX 11 12 1 -5
BITMAP
0C00
1000
0C00
1000
0000
0000
41E0
8200
8180
8040
4180
3E00
ENDCHAR
STARTCHAR uniFE8B
ENCODING 65163
SWIDTH 300 0
DWIDTH 5 0
BBX 4 11 0 0
BITMAP
30
40
30
40
00
00
20
10
10
10
E0
ENDCHAR
STARTCHAR uniFE8C
ENCODING 65164
SWIDTH 360 0
DWIDTH 6 0
BBX 6 10 0 0
BITMAP
18
20
18
20
00
00
10
10
10
FC
ENDCHAR
STARTCHAR uniFE8D
ENCODING 65165
SWIDTH 300 0
DWIDTH 5 0
BBX 2 10 2 0
BITMAP
80
C0
80
80
80
80
80
80
80
80
ENDCHAR
STARTCHAR uniFE8E
ENCODING 65166
SWIDTH 300 0
DWIDTH 5 0
BBX 3 10 2 0
BITMAP
80
C0
80
80
80
80
80
80
80
60
ENDCHAR
STARTCHAR uniFE8F
ENCODING 65167
SWIDTH 780 0
DWIDTH 13 0
BBX 13 9 0 -4
BITMAP
0008
4008
8008
8008
C030
7FC0
0000
0200
0200
ENDCHAR
STARTCHAR uniFE90
ENCODING 65168
SWIDTH 960 0
DWIDTH 16 0
BBX 15 8 1 -4
BITMAP
4000
8010
8010
C07E
7F80
0000
0400
0400
ENDCHAR
STARTCHAR uniFE91
ENCODING 65169
SWIDTH 360 0
DWIDTH 6 0
BBX 5 8 0 -3
BITMAP
10
08
08
08
F0
00
20
20
ENDCHAR
STARTCHAR uniFE92
ENCODING 65170
SWIDTH 360 0
DWIDTH 6 0
BBX 6 7 0 -3
BITMAP
10
10
10
FC
00
10
10
ENDCHAR
STARTCHAR uniFE93
ENCODING 65171
SWIDTH 420 0
DWIDTH 7 0
BBX 5 10 1 0
BITMAP
50
50
00
00
20
30
50
98
88
78
ENDCHAR
STARTCHAR uniFE94
ENCODING 65172
SWIDTH 420 0
DWIDTH 7 0
BBX 6 11 1 0
BITMAP
28
28
00
00
10
70
90
D0
70
10
0C
ENDCHAR
STARTCHAR uniFE95
ENCODING 65173
SWIDTH 780 0
DWIDTH 13 0
BBX 13 8 0 -1
BITMAP
0500
0500
0008
4008
8008
8008
C030
7FC0
ENDCHAR
STARTCHAR uniFE96
ENCODING 65174
SWIDTH 900 0
DWIDTH 15 0
BBX 15 8 1 -1
BITMAP
0500
0500
0000
4000
8010
8010
C07E
7F80
ENDCHAR
STARTCHAR uniFE97
ENCODING 65175
SWIDTH 360 0
DWIDTH 6 0
BBX 5 8 0 0
BITMAP
28
28
00
10
08
08
08
F0
ENDCHAR
STARTCHAR uniFE98
ENCODING 65176
SWIDTH 360 0
DWIDTH 6 0
BBX 6 8 0 0
BITMAP
28
28
00
00
10
10
10
FC
ENDCHAR
STARTCHAR uniFE99
ENCODING 65177
SWIDTH 840 0
DWIDTH 14 0
BBX 13 10 1 -1
BITMAP
0200
0200
0500
0500
0008
4008
8008
8008
C030
7FC0
ENDCHAR
STARTCHAR uniFE9A
ENCODING 65178
SWIDTH 900 0
DWIDTH 15 0
BBX 15 10 1 -1
BITMAP
0200
0200
0500
0500
0000
4000
8010
8010
C07E
7F80
ENDCHAR
STARTCHAR uniFE9B
ENCODING 65179
SWIDTH 360 0
DWIDTH 6 0
BBX 5 10 0 0
BITMAP
10
10
28
28
00
10
08
08
08
F0
ENDCHAR
STARTCHAR uniFE9C
ENCODING 65180
SWIDTH 360 0
DWIDTH 6 0
BBX 6 10 0 0
BITMAP
10
10
28
28
00
00
10
10
10
FC
ENDCHAR
STARTCHAR uniFE9D
ENCODING 65181
SWIDTH 660 0
DWIDTH 11 0
BBX 10 11 1 -6
BITMAP
7000
8F00
3800
4000
4000
8800
8800
8000
4000
60C0
1F00
ENDCHAR
STARTCHAR uniFE9E
ENCODING 65182
SWIDTH 600 0
DWIDTH 10 0
BBX 10 11 1 -6
BITMAP
7000
8F00
3A00
4200
41C0
8800
8800
8000
4000
60C0
1F00
ENDCHAR
STARTCHAR uni0016
ENCODING 65183
SWIDTH 600 0
DWIDTH 10 0
BBX 9 8 0 -4
BITMAP
3800
4600
0100
FF80
0000
0000
0800
0800
ENDCHAR
STARTCHAR uni0016
ENCODING 65184
SWIDTH 600 0
DWIDTH 10 0
BBX 10 8 0 -4
BITMAP
3800
4600
0100
FFC0
0000
0000
0800
0800
ENDCHAR
STARTCHAR uniFEA1
ENCODING 65185
SWIDTH 660 0
DWIDTH 11 0
BBX 10 11 1 -6
BITMAP
7000
8F00
3800
4000
4000
8000
8000
8000
4000
60C0
1F00
ENDCHAR
STARTCHAR uniFEA2
ENCODING 65186
SWIDTH 600 0
DWIDTH 10 0
BBX 10 11 1 -6
BITMAP
7000
8F00
3A00
4200
41C0
8000
8000
8000
4000
60C0
1F00
ENDCHAR
STARTCHAR uni0016
ENCODING 65187
SWIDTH 600 0
DWIDTH 10 0
BBX 9 4 0 0
BITMAP
3800
4600
0100
FF80
ENDCHAR
STARTCHAR uni0016
ENCODING 65188
SWIDTH 600 0
DWIDTH 10 0
BBX 10 4 0 0
BITMAP
3800
4600
0100
FFC0
ENDCHAR
STARTCHAR uniFEA5
ENCODING 65189
SWIDTH 660 0
DWIDTH 11 0
BBX 10 15 1 -6
BITMAP
0800
0800
0000
0000
7000
8F00
3800
4000
4000
8000
8000
8000
4000
60C0
1F00
ENDCHAR
STARTCHAR uniFEA6
ENCODING 65190
SWIDTH 600 0
DWIDTH 10 0
BBX 10 15 1 -6
BITMAP
0800
0800
0000
0000
7000
8F00
3A00
4200
41C0
8000
8000
8000
4000
60C0
1F00
ENDCHAR
STARTCHAR uni0016
ENCODING 65191
SWIDTH 600 0
DWIDTH 10 0
BBX 9 8 0 0
BITMAP
0800
0800
0000
0000
3800
4600
0100
FF80
ENDCHAR
STARTCHAR uni0016
ENCODING 65192
SWIDTH 600 0
DWIDTH 10 0
BBX 10 8 1 0
BITMAP
0800
0800
0000
0000
3800
4600
0100
FFC0
ENDCHAR
STARTCHAR uniFEA9
ENCODING 65193
SWIDTH 360 0
DWIDTH 6 0
BBX 5 6 1 0
BITMAP
10
10
08
08
98
60
ENDCHAR
STARTCHAR uniFEAA
ENCODING 65194
SWIDTH 420 0
DWIDTH 7 0
BBX 7 7 1 0
BITMAP
10
10
08
08
08
98
66
ENDCHAR
STARTCHAR uniFEAB
ENCODING 65195
SWIDTH 360 0
DWIDTH 6 0
BBX 5 10 1 0
BITMAP
20
20
00
00
10
10
08
08
98
60
ENDCHAR
STARTCHAR uniFEAC
ENCODING 65196
SWIDTH 420 0
DWIDTH 7 0
BBX 7 11 1 0
BITMAP
20
20
00
00
10
10
08
08
08
98
66
ENDCHAR
STARTCHAR uniFEAD
ENCODING 65197
SWIDTH 420 0
DWIDTH 7 0
BBX 6 8 1 -4
BITMAP
08
08
04
04
04
0C
18
F0
ENDCHAR
STARTCHAR uniFEAE
ENCODING 65198
SWIDTH 540 0
DWIDTH 9 0
BBX 8 8 1 -5
BITMAP
08
0C
07
04
04
0C
18
F0
ENDCHAR
STARTCHAR uniFEAF
ENCODING 65199
SWIDTH 420 0
DWIDTH 7 0
BBX 6 12 1 -4
BITMAP
08
08
00
00
08
08
04
04
04
0C
18
F0
ENDCHAR
STARTCHAR uniFEB0
ENCODING 65200
SWIDTH 540 0
DWIDTH 9 0
BBX 8 12 1 -5
BITMAP
08
08
00
00
08
0C
07
04
04
0C
18
F0
ENDCHAR
STARTCHAR uniFEB1
ENCODING 65201
SWIDTH 960 0
DWIDTH 16 0
BBX 15 8 1 -5
BITMAP
0112
0112
40EC
8080
8080
8080
4300
3C00
ENDCHAR
STARTCHAR uniFEB2
ENCODING 65202
SWIDTH 1020 0
DWIDTH 17 0
BBX 17 8 1 -5
BITMAP
011200
011200
40FF80
808000
808000
808000
430000
3C0000
ENDCHAR
STARTCHAR uniFEB3
ENCODING 65203
SWIDTH 660 0
DWIDTH 11 0
BBX 11 3 0 0
BITMAP
1120
1120
FFE0
ENDCHAR
STARTCHAR uniFEB4
ENCODING 65204
SWIDTH 780 0
DWIDTH 13 0
BBX 13 3 0 0
BITMAP
1120
1120
FFF8
ENDCHAR
STARTCHAR uniFEB5
ENCODING 65205
SWIDTH 960 0
DWIDTH 16 0
BBX 15 14 1 -5
BITMAP
0010
0010
0028
0028
0000
0000
0112
0112
40EC
8080
8080
8080
4300
3C00
ENDCHAR
STARTCHAR uniFEB6
ENCODING 65206
SWIDTH 1020 0
DWIDTH 17 0
BBX 17 14 1 -5
BITMAP
001000
001000
002800
002800
000000
000000
011200
011200
40FF80
808000
808000
808000
430000
3C0000
ENDCHAR
STARTCHAR uniFEB7
ENCODING 65207
SWIDTH 720 0
DWIDTH 12 0
BBX 11 9 0 0
BITMAP
0100
0100
0280
0280
0000
0000
1120
1120
FFE0
ENDCHAR
STARTCHAR uniFEB8
ENCODING 65208
SWIDTH 780 0
DWIDTH 13 0
BBX 13 9 0 0
BITMAP
0100
0100
0280
0280
0000
0000
1120
1120
FFF8
ENDCHAR
STARTCHAR uniFEB9
ENCODING 65209
SWIDTH 1080 0
DWIDTH 18 0
BBX 17 9 1 -5
BITMAP
000700
001880
012080
40FF00
80C000
808000
808000
430000
3C0000
ENDCHAR
STARTCHAR uniFEBA
ENCODING 65210
SWIDTH 1080 0
DWIDTH 18 0
BBX 18 9 1 -5
BITMAP
000700
001880
012080
40FFC0
80C000
808000
808000
430000
3C0000
ENDCHAR
STARTCHAR uniFEBB
ENCODING 65211
SWIDTH 840 0
DWIDTH 14 0
BBX 13 4 0 0
BITMAP
0070
2188
2208
FFF0
ENDCHAR
STARTCHAR uniFEBC
ENCODING 65212
SWIDTH 780 0
DWIDTH 13 0
BBX 13 4 0 0
BITMAP
00E0
2310
2410
FFF8
ENDCHAR
STARTCHAR uniFEB9
ENCODING 65213
SWIDTH 1080 0
DWIDTH 18 0
BBX 17 12 1 -5
BITMAP
000800
000800
000000
000700
001880
012080
40FF00
80C000
808000
808000
430000
3C0000
ENDCHAR
STARTCHAR uniFEBA
ENCODING 65214
SWIDTH 1080 0
DWIDTH 18 0
BBX 18 12 1 -5
BITMAP
000800
000800
000000
000700
001880
012080
40FFC0
80C000
808000
808000
430000
3C0000
ENDCHAR
STARTCHAR uniFEBB
ENCODING 65215
SWIDTH 840 0
DWIDTH 14 0
BBX 13 7 0 0
BITMAP
0080
0080
0000
0070
2188
2208
FFF0
ENDCHAR
STARTCHAR uniFEBC
ENCODING 65216
SWIDTH 780 0
DWIDTH 13 0
BBX 13 7 0 0
BITMAP
0100
0100
0000
00E0
2310
2410
FFF8
ENDCHAR
STARTCHAR uniFEC1
ENCODING 65217
SWIDTH 540 0
DWIDTH 9 0
BBX 8 10 1 0
BITMAP
20
30
20
20
20
20
2E
31
21
FE
ENDCHAR
STARTCHAR uniFEC2
ENCODING 65218
SWIDTH 540 0
DWIDTH 9 0
BBX 9 10 1 0
BITMAP
2000
3000
2000
2000
2000
2000
2E00
3100
2100
FF80
ENDCHAR
STARTCHAR uniFEC3
ENCODING 65219
SWIDTH 480 0
DWIDTH 8 0
BBX 7 10 0 0
BITMAP
40
60
40
40
40
40
5C
62
42
FC
ENDCHAR
STARTCHAR uniFEC4
ENCODING 65220
SWIDTH 600 0
DWIDTH 10 0
BBX 10 10 0 0
BITMAP
2000
3000
2000
2000
2000
2000
2E00
3100
2100
FFC0
ENDCHAR
STARTCHAR uniFEC5
ENCODING 65221
SWIDTH 540 0
DWIDTH 9 0
BBX 8 10 1 0
BITMAP
20
30
20
26
20
20
2E
31
21
FE
ENDCHAR
STARTCHAR uniFEC6
ENCODING 65222
SWIDTH 600 0
DWIDTH 10 0
BBX 10 10 1 0
BITMAP
2000
3000
2000
2600
2000
2000
2E00
3100
2100
FFC0
ENDCHAR
STARTCHAR uniFEC7
ENCODING 65223
SWIDTH 540 0
DWIDTH 9 0
BBX 8 10 0 0
BITMAP
20
30
20
26
20
20
2E
31
21
FE
ENDCHAR
STARTCHAR uniFEC8
ENCODING 65224
SWIDTH 600 0
DWIDTH 10 0
BBX 10 10 0 0
BITMAP
2000
3000
2000
2600
2000
2000
2E00
3100
2100
FFC0
ENDCHAR
STARTCHAR uniFEC9
ENCODING 65225
SWIDTH 600 0
DWIDTH 10 0
BBX 9 12 1 -7
BITMAP
3800
4000
8000
4C00
3000
4000
4000
8000
8000
8000
4180
3E00
ENDCHAR
STARTCHAR uniFECA
ENCODING 65226
SWIDTH 540 0
DWIDTH 9 0
BBX 9 11 1 -6
BITMAP
3800
6C00
1000
3800
4780
4000
8000
8000
8000
4180
3E00
ENDCHAR
STARTCHAR uniFECB
ENCODING 65227
SWIDTH 420 0
DWIDTH 7 0
BBX 7 5 0 0
BITMAP
1C
20
40
22
FC
ENDCHAR
STARTCHAR uniFECC
ENCODING 65228
SWIDTH 420 0
DWIDTH 7 0
BBX 7 5 0 0
BITMAP
38
6C
10
38
C6
ENDCHAR
STARTCHAR uniFECD
ENCODING 65229
SWIDTH 600 0
DWIDTH 10 0
BBX 9 16 1 -7
BITMAP
2000
2000
0000
0000
3800
4000
8000
4C00
3000
4000
4000
8000
8000
8000
4180
3E00
ENDCHAR
STARTCHAR uniFECE
ENCODING 65230
SWIDTH 540 0
DWIDTH 9 0
BBX 9 15 1 -6
BITMAP
1000
1000
0000
0000
3800
6C00
1000
3800
4780
4000
8000
8000
8000
4180
3E00
ENDCHAR
STARTCHAR uniFECF
ENCODING 65231
SWIDTH 420 0
DWIDTH 7 0
BBX 7 9 0 0
BITMAP
10
10
00
00
1C
20
40
22
FC
ENDCHAR
STARTCHAR uniFED0
ENCODING 65232
SWIDTH 480 0
DWIDTH 8 0
BBX 8 9 0 0
BITMAP
08
08
00
00
1C
36
08
1C
E3
ENDCHAR
STARTCHAR uniFED1
ENCODING 65233
SWIDTH 900 0
DWIDTH 15 0
BBX 14 12 1 0
BITMAP
0010
0010
0000
0000
0018
002C
0024
802C
8014
8004
4038
3FC0
ENDCHAR
STARTCHAR uniFED2
ENCODING 65234
SWIDTH 960 0
DWIDTH 16 0
BBX 16 12 1 -1
BITMAP
0010
0010
0000
0000
0018
002C
0024
802C
8014
8004
403B
3FC0
ENDCHAR
STARTCHAR uniFED3
ENCODING 65235
SWIDTH 240 0
DWIDTH 4 0
BBX 5 11 0 0
BITMAP
20
20
00
00
30
58
48
58
28
08
F0
ENDCHAR
STARTCHAR uniFED4
ENCODING 65236
SWIDTH 480 0
DWIDTH 8 0
BBX 8 10 0 0
BITMAP
10
10
00
00
18
24
24
18
18
E7
ENDCHAR
STARTCHAR uniFED5
ENCODING 65237
SWIDTH 600 0
DWIDTH 10 0
BBX 9 14 1 -3
BITMAP
0500
0500
0000
0000
0300
0580
0480
0480
4380
8080
8080
8100
4200
3C00
ENDCHAR
STARTCHAR uniFED6
ENCODING 65238
SWIDTH 720 0
DWIDTH 12 0
BBX 11 14 1 -5
BITMAP
0500
0500
0000
0000
0300
0580
0480
0480
43E0
8080
8080
8100
4200
3C00
ENDCHAR
STARTCHAR uniFED7
ENCODING 65239
SWIDTH 240 0
DWIDTH 4 0
BBX 5 11 0 0
BITMAP
50
50
00
00
30
58
48
58
28
08
F0
ENDCHAR
STARTCHAR uniFED8
ENCODING 65240
SWIDTH 480 0
DWIDTH 8 0
BBX 8 10 0 0
BITMAP
28
28
00
00
18
24
24
18
18
E7
ENDCHAR
STARTCHAR uni0075
ENCODING 65241
SWIDTH 660 0
DWIDTH 11 0
BBX 10 10 1 0
BITMAP
0080
00C0
0080
0480
0C80
0480
8C80
8080
C080
7F00
ENDCHAR
STARTCHAR uni0075
ENCODING 65242
SWIDTH 660 0
DWIDTH 11 0
BBX 11 10 1 0
BITMAP
0080
00C0
0080
0480
0C80
0480
8C80
8080
C080
7FE0
ENDCHAR
STARTCHAR uniFEDB
ENCODING 65243
SWIDTH 480 0
DWIDTH 8 0
BBX 8 10 0 0
BITMAP
01
06
18
20
20
10
0C
02
02
FC
ENDCHAR
STARTCHAR uniFEDC
ENCODING 65244
SWIDTH 660 0
DWIDTH 11 0
BBX 11 10 0 0
BITMAP
0080
0300
0C00
1000
1000
0800
0600
0100
0100
FFE0
ENDCHAR
STARTCHAR uniFEDD
ENCODING 65245
SWIDTH 540 0
DWIDTH 9 0
BBX 8 12 1 -2
BITMAP
02
03
02
02
02
02
02
42
82
82
84
78
ENDCHAR
STARTCHAR uniFEDE
ENCODING 65246
SWIDTH 540 0
DWIDTH 9 0
BBX 9 14 1 -4
BITMAP
0200
0300
0200
0200
0200
0200
0200
0200
0200
4380
8200
8200
8400
7800
ENDCHAR
STARTCHAR uniFEDF
ENCODING 65247
SWIDTH 240 0
DWIDTH 4 0
BBX 4 10 0 0
BITMAP
20
30
20
20
20
20
20
20
20
C0
ENDCHAR
STARTCHAR uniFEE0
ENCODING 65248
SWIDTH 240 0
DWIDTH 4 0
BBX 4 10 0 0
BITMAP
20
30
20
20
20
20
20
20
20
F0
ENDCHAR
STARTCHAR uniFEE1
ENCODING 65249
SWIDTH 420 0
DWIDTH 7 0
BBX 6 13 1 -9
BITMAP
40
B0
08
7C
80
80
80
80
80
80
80
80
80
ENDCHAR
STARTCHAR uniFEE2
ENCODING 65250
SWIDTH 420 0
DWIDTH 7 0
BBX 7 13 1 -9
BITMAP
40
B0
08
7E
80
80
80
80
80
80
80
80
80
ENDCHAR
STARTCHAR uniFEE3
ENCODING 65251
SWIDTH 480 0
DWIDTH 8 0
BBX 7 4 0 0
BITMAP
0C
12
32
EC
ENDCHAR
STARTCHAR uniFEE4
ENCODING 65252
SWIDTH 540 0
DWIDTH 9 0
BBX 9 4 0 0
BITMAP
0C00
1200
3300
ED80
ENDCHAR
STARTCHAR uniFEE5
ENCODING 65253
SWIDTH 600 0
DWIDTH 10 0
BBX 8 10 1 -2
BITMAP
10
10
00
02
02
41
81
81
82
7C
ENDCHAR
STARTCHAR uniFEE6
ENCODING 65254
SWIDTH 540 0
DWIDTH 9 0
BBX 9 10 1 -4
BITMAP
1000
1000
0000
0200
0200
4180
8100
8100
8200
7C00
ENDCHAR
STARTCHAR uniFEE7
ENCODING 65255
SWIDTH 360 0
DWIDTH 6 0
BBX 5 9 0 0
BITMAP
20
20
00
00
10
08
08
08
F0
ENDCHAR
STARTCHAR uniFEE8
ENCODING 65256
SWIDTH 360 0
DWIDTH 6 0
BBX 6 8 0 0
BITMAP
10
10
00
00
10
10
10
FC
ENDCHAR
STARTCHAR uniFEE9
ENCODING 65257
SWIDTH 360 0
DWIDTH 6 0
BBX 4 6 1 0
BITMAP
20
30
50
90
90
60
ENDCHAR
STARTCHAR uniFEEA
ENCODING 65258
SWIDTH 420 0
DWIDTH 7 0
BBX 6 7 1 0
BITMAP
10
30
50
90
90
70
0C
ENDCHAR
STARTCHAR uniFEEB
ENCODING 65259
SWIDTH 480 0
DWIDTH 8 0
BBX 8 7 0 0
BITMAP
10
18
2C
56
52
31
CE
ENDCHAR
STARTCHAR uniFEEC
ENCODING 65260
SWIDTH 360 0
DWIDTH 6 0
BBX 6 11 0 -5
BITMAP
18
28
28
28
30
FC
30
28
28
28
18
ENDCHAR
STARTCHAR uniFEED
ENCODING 65261
SWIDTH 540 0
DWIDTH 9 0
BBX 7 8 0 -3
BITMAP
04
0A
0A
0E
02
02
84
78
ENDCHAR
STARTCHAR uniFEEE
ENCODING 65262
SWIDTH 600 0
DWIDTH 10 0
BBX 9 8 1 -4
BITMAP
0400
0A00
0A00
0780
0200
0200
8400
7800
ENDCHAR
STARTCHAR uniFEEF
ENCODING 65263
SWIDTH 660 0
DWIDTH 11 0
BBX 11 8 0 -2
BITMAP
01E0
0200
4200
8180
8040
8040
4180
3E00
ENDCHAR
STARTCHAR uniFEF0
ENCODING 65264
SWIDTH 720 0
DWIDTH 12 0
BBX 11 6 1 -5
BITMAP
41E0
8200
8180
8040
4180
3E00
ENDCHAR
STARTCHAR uniFEF1
ENCODING 65265
SWIDTH 720 0
DWIDTH 12 0
BBX 11 11 1 -5
BITMAP
01E0
0200
4200
8180
8040
8040
4180
3E00
0000
2800
2800
ENDCHAR
STARTCHAR uniFEF2
ENCODING 65266
SWIDTH 660 0
DWIDTH 11 0
BBX 11 9 1 -8
BITMAP
41E0
8200
8180
8040
4180
3E00
0000
2800
2800
ENDCHAR
STARTCHAR uniFEF3
ENCODING 65267
SWIDTH 360 0
DWIDTH 6 0
BBX 5 8 0 -3
BITMAP
10
08
08
08
F0
00
50
50
ENDCHAR
STARTCHAR uniFEF4
ENCODING 65268
SWIDTH 360 0
DWIDTH 6 0
BBX 6 7 0 -3
BITMAP
10
10
10
FC
00
28
28
ENDCHAR
STARTCHAR uniFEF5
ENCODING 65269
SWIDTH 540 0
DWIDTH 9 0
BBX 7 14 1 0
BITMAP
04
78
80
00
C4
E6
24
14
14
08
0C
14
24
38
ENDCHAR
STARTCHAR uniFEF6
ENCODING 65270
SWIDTH 660 0
DWIDTH 11 0
BBX 10 15 1 -1
BITMAP
0400
7800
8000
0000
0200
6300
7200
1200
0A00
0A00
0A00
0D00
0900
30C0
E000
ENDCHAR
STARTCHAR uniFEF7
ENCODING 65271
SWIDTH 540 0
DWIDTH 9 0
BBX 7 15 1 0
BITMAP
60
80
60
80
00
C4
E6
24
14
14
08
0C
14
24
38
ENDCHAR
STARTCHAR uniFEF8
ENCODING 65272
SWIDTH 660 0
DWIDTH 11 0
BBX 10 16 1 -1
BITMAP
6000
8000
6000
8000
0000
0200
6300
7200
1200
0A00
0A00
0A00
0D00
0900
30C0
E000
ENDCHAR
STARTCHAR uniFEF9
ENCODING 65273
SWIDTH 540 0
DWIDTH 9 0
BBX 7 16 1 -6
BITMAP
C4
E6
24
14
14
08
0C
14
24
38
00
00
60
80
60
80
ENDCHAR
STARTCHAR uniFEFA
ENCODING 65274
SWIDTH 660 0
DWIDTH 11 0
BBX 10 17 1 -7
BITMAP
0200
6300
7200
1200
0A00
0A00
0A00
0D00
0900
30C0
E000
0000
0000
6000
8000
6000
8000
ENDCHAR
STARTCHAR uniFEFB
ENCODING 65275
SWIDTH 540 0
DWIDTH 9 0
BBX 7 10 1 0
BITMAP
C4
E6
24
14
14
08
0C
14
24
38
ENDCHAR
STARTCHAR uniFEFC
ENCODING 65276
SWIDTH 660 0
DWIDTH 11 0
BBX 10 11 1 -1
BITMAP
0200
6300
7200
1200
0A00
0A00
0A00
0D00
0900
30C0
E000
ENDCHAR
ENDFONT
